<?xml version="1.0" encoding="utf-8" standalone="no"?>
<!DOCTYPE svg PUBLIC "-//W3C//DTD SVG 1.1//EN"
  "http://www.w3.org/Graphics/SVG/1.1/DTD/svg11.dtd">
<!-- Created with matplotlib (http://matplotlib.org/) -->
<svg height="504pt" version="1.1" viewBox="0 0 1008 504" width="1008pt" xmlns="http://www.w3.org/2000/svg" xmlns:xlink="http://www.w3.org/1999/xlink">
 <defs>
  <style type="text/css">
*{stroke-linecap:butt;stroke-linejoin:round;}
  </style>
 </defs>
 <g id="figure_1">
  <g id="patch_1">
   <path d="M 0 504 
L 1008 504 
L 1008 0 
L 0 0 
z
" style="fill:#ffffff;"/>
  </g>
  <g id="axes_1">
   <g id="patch_2">
    <path d="M 126 448.56 
L 907.2 448.56 
L 907.2 60.48 
L 126 60.48 
z
" style="fill:#ffffff;"/>
   </g>
   <g id="matplotlib.axis_1">
    <g id="xtick_1">
     <g id="line2d_1">
      <path clip-path="url(#p8290c368bd)" d="M 126 448.56 
L 126 60.48 
" style="fill:none;stroke:#b0b0b0;stroke-linecap:square;stroke-width:0.8;"/>
     </g>
     <g id="line2d_2">
      <defs>
       <path d="M 0 0 
L 0 3.5 
" id="m8d580f4628" style="stroke:#000000;stroke-width:0.8;"/>
      </defs>
      <g>
       <use style="stroke:#000000;stroke-width:0.8;" x="126" xlink:href="#m8d580f4628" y="448.56"/>
      </g>
     </g>
     <g id="text_1">
      <!-- −40 -->
      <defs>
       <path d="M 10.59375 35.5 
L 73.1875 35.5 
L 73.1875 27.203125 
L 10.59375 27.203125 
z
" id="DejaVuSans-2212"/>
       <path d="M 37.796875 64.3125 
L 12.890625 25.390625 
L 37.796875 25.390625 
z
M 35.203125 72.90625 
L 47.609375 72.90625 
L 47.609375 25.390625 
L 58.015625 25.390625 
L 58.015625 17.1875 
L 47.609375 17.1875 
L 47.609375 0 
L 37.796875 0 
L 37.796875 17.1875 
L 4.890625 17.1875 
L 4.890625 26.703125 
z
" id="DejaVuSans-34"/>
       <path d="M 31.78125 66.40625 
Q 24.171875 66.40625 20.328125 58.90625 
Q 16.5 51.421875 16.5 36.375 
Q 16.5 21.390625 20.328125 13.890625 
Q 24.171875 6.390625 31.78125 6.390625 
Q 39.453125 6.390625 43.28125 13.890625 
Q 47.125 21.390625 47.125 36.375 
Q 47.125 51.421875 43.28125 58.90625 
Q 39.453125 66.40625 31.78125 66.40625 
z
M 31.78125 74.21875 
Q 44.046875 74.21875 50.515625 64.515625 
Q 56.984375 54.828125 56.984375 36.375 
Q 56.984375 17.96875 50.515625 8.265625 
Q 44.046875 -1.421875 31.78125 -1.421875 
Q 19.53125 -1.421875 13.0625 8.265625 
Q 6.59375 17.96875 6.59375 36.375 
Q 6.59375 54.828125 13.0625 64.515625 
Q 19.53125 74.21875 31.78125 74.21875 
z
" id="DejaVuSans-30"/>
      </defs>
      <g transform="translate(115.447656 463.158437)scale(0.1 -0.1)">
       <use xlink:href="#DejaVuSans-2212"/>
       <use x="83.789062" xlink:href="#DejaVuSans-34"/>
       <use x="147.412109" xlink:href="#DejaVuSans-30"/>
      </g>
     </g>
    </g>
    <g id="xtick_2">
     <g id="line2d_3">
      <path clip-path="url(#p8290c368bd)" d="M 223.65 448.56 
L 223.65 60.48 
" style="fill:none;stroke:#b0b0b0;stroke-linecap:square;stroke-width:0.8;"/>
     </g>
     <g id="line2d_4">
      <g>
       <use style="stroke:#000000;stroke-width:0.8;" x="223.65" xlink:href="#m8d580f4628" y="448.56"/>
      </g>
     </g>
     <g id="text_2">
      <!-- −30 -->
      <defs>
       <path d="M 40.578125 39.3125 
Q 47.65625 37.796875 51.625 33 
Q 55.609375 28.21875 55.609375 21.1875 
Q 55.609375 10.40625 48.1875 4.484375 
Q 40.765625 -1.421875 27.09375 -1.421875 
Q 22.515625 -1.421875 17.65625 -0.515625 
Q 12.796875 0.390625 7.625 2.203125 
L 7.625 11.71875 
Q 11.71875 9.328125 16.59375 8.109375 
Q 21.484375 6.890625 26.8125 6.890625 
Q 36.078125 6.890625 40.9375 10.546875 
Q 45.796875 14.203125 45.796875 21.1875 
Q 45.796875 27.640625 41.28125 31.265625 
Q 36.765625 34.90625 28.71875 34.90625 
L 20.21875 34.90625 
L 20.21875 43.015625 
L 29.109375 43.015625 
Q 36.375 43.015625 40.234375 45.921875 
Q 44.09375 48.828125 44.09375 54.296875 
Q 44.09375 59.90625 40.109375 62.90625 
Q 36.140625 65.921875 28.71875 65.921875 
Q 24.65625 65.921875 20.015625 65.03125 
Q 15.375 64.15625 9.8125 62.3125 
L 9.8125 71.09375 
Q 15.4375 72.65625 20.34375 73.4375 
Q 25.25 74.21875 29.59375 74.21875 
Q 40.828125 74.21875 47.359375 69.109375 
Q 53.90625 64.015625 53.90625 55.328125 
Q 53.90625 49.265625 50.4375 45.09375 
Q 46.96875 40.921875 40.578125 39.3125 
z
" id="DejaVuSans-33"/>
      </defs>
      <g transform="translate(213.097656 463.158437)scale(0.1 -0.1)">
       <use xlink:href="#DejaVuSans-2212"/>
       <use x="83.789062" xlink:href="#DejaVuSans-33"/>
       <use x="147.412109" xlink:href="#DejaVuSans-30"/>
      </g>
     </g>
    </g>
    <g id="xtick_3">
     <g id="line2d_5">
      <path clip-path="url(#p8290c368bd)" d="M 321.3 448.56 
L 321.3 60.48 
" style="fill:none;stroke:#b0b0b0;stroke-linecap:square;stroke-width:0.8;"/>
     </g>
     <g id="line2d_6">
      <g>
       <use style="stroke:#000000;stroke-width:0.8;" x="321.3" xlink:href="#m8d580f4628" y="448.56"/>
      </g>
     </g>
     <g id="text_3">
      <!-- −20 -->
      <defs>
       <path d="M 19.1875 8.296875 
L 53.609375 8.296875 
L 53.609375 0 
L 7.328125 0 
L 7.328125 8.296875 
Q 12.9375 14.109375 22.625 23.890625 
Q 32.328125 33.6875 34.8125 36.53125 
Q 39.546875 41.84375 41.421875 45.53125 
Q 43.3125 49.21875 43.3125 52.78125 
Q 43.3125 58.59375 39.234375 62.25 
Q 35.15625 65.921875 28.609375 65.921875 
Q 23.96875 65.921875 18.8125 64.3125 
Q 13.671875 62.703125 7.8125 59.421875 
L 7.8125 69.390625 
Q 13.765625 71.78125 18.9375 73 
Q 24.125 74.21875 28.421875 74.21875 
Q 39.75 74.21875 46.484375 68.546875 
Q 53.21875 62.890625 53.21875 53.421875 
Q 53.21875 48.921875 51.53125 44.890625 
Q 49.859375 40.875 45.40625 35.40625 
Q 44.1875 33.984375 37.640625 27.21875 
Q 31.109375 20.453125 19.1875 8.296875 
z
" id="DejaVuSans-32"/>
      </defs>
      <g transform="translate(310.747656 463.158437)scale(0.1 -0.1)">
       <use xlink:href="#DejaVuSans-2212"/>
       <use x="83.789062" xlink:href="#DejaVuSans-32"/>
       <use x="147.412109" xlink:href="#DejaVuSans-30"/>
      </g>
     </g>
    </g>
    <g id="xtick_4">
     <g id="line2d_7">
      <path clip-path="url(#p8290c368bd)" d="M 418.95 448.56 
L 418.95 60.48 
" style="fill:none;stroke:#b0b0b0;stroke-linecap:square;stroke-width:0.8;"/>
     </g>
     <g id="line2d_8">
      <g>
       <use style="stroke:#000000;stroke-width:0.8;" x="418.95" xlink:href="#m8d580f4628" y="448.56"/>
      </g>
     </g>
     <g id="text_4">
      <!-- −10 -->
      <defs>
       <path d="M 12.40625 8.296875 
L 28.515625 8.296875 
L 28.515625 63.921875 
L 10.984375 60.40625 
L 10.984375 69.390625 
L 28.421875 72.90625 
L 38.28125 72.90625 
L 38.28125 8.296875 
L 54.390625 8.296875 
L 54.390625 0 
L 12.40625 0 
z
" id="DejaVuSans-31"/>
      </defs>
      <g transform="translate(408.397656 463.158437)scale(0.1 -0.1)">
       <use xlink:href="#DejaVuSans-2212"/>
       <use x="83.789062" xlink:href="#DejaVuSans-31"/>
       <use x="147.412109" xlink:href="#DejaVuSans-30"/>
      </g>
     </g>
    </g>
    <g id="xtick_5">
     <g id="line2d_9">
      <path clip-path="url(#p8290c368bd)" d="M 516.6 448.56 
L 516.6 60.48 
" style="fill:none;stroke:#b0b0b0;stroke-linecap:square;stroke-width:0.8;"/>
     </g>
     <g id="line2d_10">
      <g>
       <use style="stroke:#000000;stroke-width:0.8;" x="516.6" xlink:href="#m8d580f4628" y="448.56"/>
      </g>
     </g>
     <g id="text_5">
      <!-- 0 -->
      <g transform="translate(513.41875 463.158437)scale(0.1 -0.1)">
       <use xlink:href="#DejaVuSans-30"/>
      </g>
     </g>
    </g>
    <g id="xtick_6">
     <g id="line2d_11">
      <path clip-path="url(#p8290c368bd)" d="M 614.25 448.56 
L 614.25 60.48 
" style="fill:none;stroke:#b0b0b0;stroke-linecap:square;stroke-width:0.8;"/>
     </g>
     <g id="line2d_12">
      <g>
       <use style="stroke:#000000;stroke-width:0.8;" x="614.25" xlink:href="#m8d580f4628" y="448.56"/>
      </g>
     </g>
     <g id="text_6">
      <!-- 10 -->
      <g transform="translate(607.8875 463.158437)scale(0.1 -0.1)">
       <use xlink:href="#DejaVuSans-31"/>
       <use x="63.623047" xlink:href="#DejaVuSans-30"/>
      </g>
     </g>
    </g>
    <g id="xtick_7">
     <g id="line2d_13">
      <path clip-path="url(#p8290c368bd)" d="M 711.9 448.56 
L 711.9 60.48 
" style="fill:none;stroke:#b0b0b0;stroke-linecap:square;stroke-width:0.8;"/>
     </g>
     <g id="line2d_14">
      <g>
       <use style="stroke:#000000;stroke-width:0.8;" x="711.9" xlink:href="#m8d580f4628" y="448.56"/>
      </g>
     </g>
     <g id="text_7">
      <!-- 20 -->
      <g transform="translate(705.5375 463.158437)scale(0.1 -0.1)">
       <use xlink:href="#DejaVuSans-32"/>
       <use x="63.623047" xlink:href="#DejaVuSans-30"/>
      </g>
     </g>
    </g>
    <g id="xtick_8">
     <g id="line2d_15">
      <path clip-path="url(#p8290c368bd)" d="M 809.55 448.56 
L 809.55 60.48 
" style="fill:none;stroke:#b0b0b0;stroke-linecap:square;stroke-width:0.8;"/>
     </g>
     <g id="line2d_16">
      <g>
       <use style="stroke:#000000;stroke-width:0.8;" x="809.55" xlink:href="#m8d580f4628" y="448.56"/>
      </g>
     </g>
     <g id="text_8">
      <!-- 30 -->
      <g transform="translate(803.1875 463.158437)scale(0.1 -0.1)">
       <use xlink:href="#DejaVuSans-33"/>
       <use x="63.623047" xlink:href="#DejaVuSans-30"/>
      </g>
     </g>
    </g>
    <g id="xtick_9">
     <g id="line2d_17">
      <path clip-path="url(#p8290c368bd)" d="M 907.2 448.56 
L 907.2 60.48 
" style="fill:none;stroke:#b0b0b0;stroke-linecap:square;stroke-width:0.8;"/>
     </g>
     <g id="line2d_18">
      <g>
       <use style="stroke:#000000;stroke-width:0.8;" x="907.2" xlink:href="#m8d580f4628" y="448.56"/>
      </g>
     </g>
     <g id="text_9">
      <!-- 40 -->
      <g transform="translate(900.8375 463.158437)scale(0.1 -0.1)">
       <use xlink:href="#DejaVuSans-34"/>
       <use x="63.623047" xlink:href="#DejaVuSans-30"/>
      </g>
     </g>
    </g>
    <g id="text_10">
     <!-- Real part -->
     <defs>
      <path d="M 44.390625 34.1875 
Q 47.5625 33.109375 50.5625 29.59375 
Q 53.5625 26.078125 56.59375 19.921875 
L 66.609375 0 
L 56 0 
L 46.6875 18.703125 
Q 43.0625 26.03125 39.671875 28.421875 
Q 36.28125 30.8125 30.421875 30.8125 
L 19.671875 30.8125 
L 19.671875 0 
L 9.8125 0 
L 9.8125 72.90625 
L 32.078125 72.90625 
Q 44.578125 72.90625 50.734375 67.671875 
Q 56.890625 62.453125 56.890625 51.90625 
Q 56.890625 45.015625 53.6875 40.46875 
Q 50.484375 35.9375 44.390625 34.1875 
z
M 19.671875 64.796875 
L 19.671875 38.921875 
L 32.078125 38.921875 
Q 39.203125 38.921875 42.84375 42.21875 
Q 46.484375 45.515625 46.484375 51.90625 
Q 46.484375 58.296875 42.84375 61.546875 
Q 39.203125 64.796875 32.078125 64.796875 
z
" id="DejaVuSans-52"/>
      <path d="M 56.203125 29.59375 
L 56.203125 25.203125 
L 14.890625 25.203125 
Q 15.484375 15.921875 20.484375 11.0625 
Q 25.484375 6.203125 34.421875 6.203125 
Q 39.59375 6.203125 44.453125 7.46875 
Q 49.3125 8.734375 54.109375 11.28125 
L 54.109375 2.78125 
Q 49.265625 0.734375 44.1875 -0.34375 
Q 39.109375 -1.421875 33.890625 -1.421875 
Q 20.796875 -1.421875 13.15625 6.1875 
Q 5.515625 13.8125 5.515625 26.8125 
Q 5.515625 40.234375 12.765625 48.109375 
Q 20.015625 56 32.328125 56 
Q 43.359375 56 49.78125 48.890625 
Q 56.203125 41.796875 56.203125 29.59375 
z
M 47.21875 32.234375 
Q 47.125 39.59375 43.09375 43.984375 
Q 39.0625 48.390625 32.421875 48.390625 
Q 24.90625 48.390625 20.390625 44.140625 
Q 15.875 39.890625 15.1875 32.171875 
z
" id="DejaVuSans-65"/>
      <path d="M 34.28125 27.484375 
Q 23.390625 27.484375 19.1875 25 
Q 14.984375 22.515625 14.984375 16.5 
Q 14.984375 11.71875 18.140625 8.90625 
Q 21.296875 6.109375 26.703125 6.109375 
Q 34.1875 6.109375 38.703125 11.40625 
Q 43.21875 16.703125 43.21875 25.484375 
L 43.21875 27.484375 
z
M 52.203125 31.203125 
L 52.203125 0 
L 43.21875 0 
L 43.21875 8.296875 
Q 40.140625 3.328125 35.546875 0.953125 
Q 30.953125 -1.421875 24.3125 -1.421875 
Q 15.921875 -1.421875 10.953125 3.296875 
Q 6 8.015625 6 15.921875 
Q 6 25.140625 12.171875 29.828125 
Q 18.359375 34.515625 30.609375 34.515625 
L 43.21875 34.515625 
L 43.21875 35.40625 
Q 43.21875 41.609375 39.140625 45 
Q 35.0625 48.390625 27.6875 48.390625 
Q 23 48.390625 18.546875 47.265625 
Q 14.109375 46.140625 10.015625 43.890625 
L 10.015625 52.203125 
Q 14.9375 54.109375 19.578125 55.046875 
Q 24.21875 56 28.609375 56 
Q 40.484375 56 46.34375 49.84375 
Q 52.203125 43.703125 52.203125 31.203125 
z
" id="DejaVuSans-61"/>
      <path d="M 9.421875 75.984375 
L 18.40625 75.984375 
L 18.40625 0 
L 9.421875 0 
z
" id="DejaVuSans-6c"/>
      <path id="DejaVuSans-20"/>
      <path d="M 18.109375 8.203125 
L 18.109375 -20.796875 
L 9.078125 -20.796875 
L 9.078125 54.6875 
L 18.109375 54.6875 
L 18.109375 46.390625 
Q 20.953125 51.265625 25.265625 53.625 
Q 29.59375 56 35.59375 56 
Q 45.5625 56 51.78125 48.09375 
Q 58.015625 40.1875 58.015625 27.296875 
Q 58.015625 14.40625 51.78125 6.484375 
Q 45.5625 -1.421875 35.59375 -1.421875 
Q 29.59375 -1.421875 25.265625 0.953125 
Q 20.953125 3.328125 18.109375 8.203125 
z
M 48.6875 27.296875 
Q 48.6875 37.203125 44.609375 42.84375 
Q 40.53125 48.484375 33.40625 48.484375 
Q 26.265625 48.484375 22.1875 42.84375 
Q 18.109375 37.203125 18.109375 27.296875 
Q 18.109375 17.390625 22.1875 11.75 
Q 26.265625 6.109375 33.40625 6.109375 
Q 40.53125 6.109375 44.609375 11.75 
Q 48.6875 17.390625 48.6875 27.296875 
z
" id="DejaVuSans-70"/>
      <path d="M 41.109375 46.296875 
Q 39.59375 47.171875 37.8125 47.578125 
Q 36.03125 48 33.890625 48 
Q 26.265625 48 22.1875 43.046875 
Q 18.109375 38.09375 18.109375 28.8125 
L 18.109375 0 
L 9.078125 0 
L 9.078125 54.6875 
L 18.109375 54.6875 
L 18.109375 46.1875 
Q 20.953125 51.171875 25.484375 53.578125 
Q 30.03125 56 36.53125 56 
Q 37.453125 56 38.578125 55.875 
Q 39.703125 55.765625 41.0625 55.515625 
z
" id="DejaVuSans-72"/>
      <path d="M 18.3125 70.21875 
L 18.3125 54.6875 
L 36.8125 54.6875 
L 36.8125 47.703125 
L 18.3125 47.703125 
L 18.3125 18.015625 
Q 18.3125 11.328125 20.140625 9.421875 
Q 21.96875 7.515625 27.59375 7.515625 
L 36.8125 7.515625 
L 36.8125 0 
L 27.59375 0 
Q 17.1875 0 13.234375 3.875 
Q 9.28125 7.765625 9.28125 18.015625 
L 9.28125 47.703125 
L 2.6875 47.703125 
L 2.6875 54.6875 
L 9.28125 54.6875 
L 9.28125 70.21875 
z
" id="DejaVuSans-74"/>
     </defs>
     <g transform="translate(486.903125 479.116094)scale(0.13 -0.13)">
      <use xlink:href="#DejaVuSans-52"/>
      <use x="69.419922" xlink:href="#DejaVuSans-65"/>
      <use x="130.943359" xlink:href="#DejaVuSans-61"/>
      <use x="192.222656" xlink:href="#DejaVuSans-6c"/>
      <use x="220.005859" xlink:href="#DejaVuSans-20"/>
      <use x="251.792969" xlink:href="#DejaVuSans-70"/>
      <use x="315.269531" xlink:href="#DejaVuSans-61"/>
      <use x="376.548828" xlink:href="#DejaVuSans-72"/>
      <use x="417.662109" xlink:href="#DejaVuSans-74"/>
     </g>
    </g>
   </g>
   <g id="matplotlib.axis_2">
    <g id="ytick_1">
     <g id="line2d_19">
      <path clip-path="url(#p8290c368bd)" d="M 126 448.56 
L 907.2 448.56 
" style="fill:none;stroke:#b0b0b0;stroke-linecap:square;stroke-width:0.8;"/>
     </g>
     <g id="line2d_20">
      <defs>
       <path d="M 0 0 
L -3.5 0 
" id="m712d3171bd" style="stroke:#000000;stroke-width:0.8;"/>
      </defs>
      <g>
       <use style="stroke:#000000;stroke-width:0.8;" x="126" xlink:href="#m712d3171bd" y="448.56"/>
      </g>
     </g>
     <g id="text_11">
      <!-- −20 -->
      <g transform="translate(97.895313 452.359219)scale(0.1 -0.1)">
       <use xlink:href="#DejaVuSans-2212"/>
       <use x="83.789062" xlink:href="#DejaVuSans-32"/>
       <use x="147.412109" xlink:href="#DejaVuSans-30"/>
      </g>
     </g>
    </g>
    <g id="ytick_2">
     <g id="line2d_21">
      <path clip-path="url(#p8290c368bd)" d="M 126 400.05 
L 907.2 400.05 
" style="fill:none;stroke:#b0b0b0;stroke-linecap:square;stroke-width:0.8;"/>
     </g>
     <g id="line2d_22">
      <g>
       <use style="stroke:#000000;stroke-width:0.8;" x="126" xlink:href="#m712d3171bd" y="400.05"/>
      </g>
     </g>
     <g id="text_12">
      <!-- −15 -->
      <defs>
       <path d="M 10.796875 72.90625 
L 49.515625 72.90625 
L 49.515625 64.59375 
L 19.828125 64.59375 
L 19.828125 46.734375 
Q 21.96875 47.46875 24.109375 47.828125 
Q 26.265625 48.1875 28.421875 48.1875 
Q 40.625 48.1875 47.75 41.5 
Q 54.890625 34.8125 54.890625 23.390625 
Q 54.890625 11.625 47.5625 5.09375 
Q 40.234375 -1.421875 26.90625 -1.421875 
Q 22.3125 -1.421875 17.546875 -0.640625 
Q 12.796875 0.140625 7.71875 1.703125 
L 7.71875 11.625 
Q 12.109375 9.234375 16.796875 8.0625 
Q 21.484375 6.890625 26.703125 6.890625 
Q 35.15625 6.890625 40.078125 11.328125 
Q 45.015625 15.765625 45.015625 23.390625 
Q 45.015625 31 40.078125 35.4375 
Q 35.15625 39.890625 26.703125 39.890625 
Q 22.75 39.890625 18.8125 39.015625 
Q 14.890625 38.140625 10.796875 36.28125 
z
" id="DejaVuSans-35"/>
      </defs>
      <g transform="translate(97.895313 403.849219)scale(0.1 -0.1)">
       <use xlink:href="#DejaVuSans-2212"/>
       <use x="83.789062" xlink:href="#DejaVuSans-31"/>
       <use x="147.412109" xlink:href="#DejaVuSans-35"/>
      </g>
     </g>
    </g>
    <g id="ytick_3">
     <g id="line2d_23">
      <path clip-path="url(#p8290c368bd)" d="M 126 351.54 
L 907.2 351.54 
" style="fill:none;stroke:#b0b0b0;stroke-linecap:square;stroke-width:0.8;"/>
     </g>
     <g id="line2d_24">
      <g>
       <use style="stroke:#000000;stroke-width:0.8;" x="126" xlink:href="#m712d3171bd" y="351.54"/>
      </g>
     </g>
     <g id="text_13">
      <!-- −10 -->
      <g transform="translate(97.895313 355.339219)scale(0.1 -0.1)">
       <use xlink:href="#DejaVuSans-2212"/>
       <use x="83.789062" xlink:href="#DejaVuSans-31"/>
       <use x="147.412109" xlink:href="#DejaVuSans-30"/>
      </g>
     </g>
    </g>
    <g id="ytick_4">
     <g id="line2d_25">
      <path clip-path="url(#p8290c368bd)" d="M 126 303.03 
L 907.2 303.03 
" style="fill:none;stroke:#b0b0b0;stroke-linecap:square;stroke-width:0.8;"/>
     </g>
     <g id="line2d_26">
      <g>
       <use style="stroke:#000000;stroke-width:0.8;" x="126" xlink:href="#m712d3171bd" y="303.03"/>
      </g>
     </g>
     <g id="text_14">
      <!-- −5 -->
      <g transform="translate(104.257812 306.829219)scale(0.1 -0.1)">
       <use xlink:href="#DejaVuSans-2212"/>
       <use x="83.789062" xlink:href="#DejaVuSans-35"/>
      </g>
     </g>
    </g>
    <g id="ytick_5">
     <g id="line2d_27">
      <path clip-path="url(#p8290c368bd)" d="M 126 254.52 
L 907.2 254.52 
" style="fill:none;stroke:#b0b0b0;stroke-linecap:square;stroke-width:0.8;"/>
     </g>
     <g id="line2d_28">
      <g>
       <use style="stroke:#000000;stroke-width:0.8;" x="126" xlink:href="#m712d3171bd" y="254.52"/>
      </g>
     </g>
     <g id="text_15">
      <!-- 0 -->
      <g transform="translate(112.6375 258.319219)scale(0.1 -0.1)">
       <use xlink:href="#DejaVuSans-30"/>
      </g>
     </g>
    </g>
    <g id="ytick_6">
     <g id="line2d_29">
      <path clip-path="url(#p8290c368bd)" d="M 126 206.01 
L 907.2 206.01 
" style="fill:none;stroke:#b0b0b0;stroke-linecap:square;stroke-width:0.8;"/>
     </g>
     <g id="line2d_30">
      <g>
       <use style="stroke:#000000;stroke-width:0.8;" x="126" xlink:href="#m712d3171bd" y="206.01"/>
      </g>
     </g>
     <g id="text_16">
      <!-- 5 -->
      <g transform="translate(112.6375 209.809219)scale(0.1 -0.1)">
       <use xlink:href="#DejaVuSans-35"/>
      </g>
     </g>
    </g>
    <g id="ytick_7">
     <g id="line2d_31">
      <path clip-path="url(#p8290c368bd)" d="M 126 157.5 
L 907.2 157.5 
" style="fill:none;stroke:#b0b0b0;stroke-linecap:square;stroke-width:0.8;"/>
     </g>
     <g id="line2d_32">
      <g>
       <use style="stroke:#000000;stroke-width:0.8;" x="126" xlink:href="#m712d3171bd" y="157.5"/>
      </g>
     </g>
     <g id="text_17">
      <!-- 10 -->
      <g transform="translate(106.275 161.299219)scale(0.1 -0.1)">
       <use xlink:href="#DejaVuSans-31"/>
       <use x="63.623047" xlink:href="#DejaVuSans-30"/>
      </g>
     </g>
    </g>
    <g id="ytick_8">
     <g id="line2d_33">
      <path clip-path="url(#p8290c368bd)" d="M 126 108.99 
L 907.2 108.99 
" style="fill:none;stroke:#b0b0b0;stroke-linecap:square;stroke-width:0.8;"/>
     </g>
     <g id="line2d_34">
      <g>
       <use style="stroke:#000000;stroke-width:0.8;" x="126" xlink:href="#m712d3171bd" y="108.99"/>
      </g>
     </g>
     <g id="text_18">
      <!-- 15 -->
      <g transform="translate(106.275 112.789219)scale(0.1 -0.1)">
       <use xlink:href="#DejaVuSans-31"/>
       <use x="63.623047" xlink:href="#DejaVuSans-35"/>
      </g>
     </g>
    </g>
    <g id="ytick_9">
     <g id="line2d_35">
      <path clip-path="url(#p8290c368bd)" d="M 126 60.48 
L 907.2 60.48 
" style="fill:none;stroke:#b0b0b0;stroke-linecap:square;stroke-width:0.8;"/>
     </g>
     <g id="line2d_36">
      <g>
       <use style="stroke:#000000;stroke-width:0.8;" x="126" xlink:href="#m712d3171bd" y="60.48"/>
      </g>
     </g>
     <g id="text_19">
      <!-- 20 -->
      <g transform="translate(106.275 64.279219)scale(0.1 -0.1)">
       <use xlink:href="#DejaVuSans-32"/>
       <use x="63.623047" xlink:href="#DejaVuSans-30"/>
      </g>
     </g>
    </g>
    <g id="text_20">
     <!-- Imaginary part -->
     <defs>
      <path d="M 9.8125 72.90625 
L 19.671875 72.90625 
L 19.671875 0 
L 9.8125 0 
z
" id="DejaVuSans-49"/>
      <path d="M 52 44.1875 
Q 55.375 50.25 60.0625 53.125 
Q 64.75 56 71.09375 56 
Q 79.640625 56 84.28125 50.015625 
Q 88.921875 44.046875 88.921875 33.015625 
L 88.921875 0 
L 79.890625 0 
L 79.890625 32.71875 
Q 79.890625 40.578125 77.09375 44.375 
Q 74.3125 48.1875 68.609375 48.1875 
Q 61.625 48.1875 57.5625 43.546875 
Q 53.515625 38.921875 53.515625 30.90625 
L 53.515625 0 
L 44.484375 0 
L 44.484375 32.71875 
Q 44.484375 40.625 41.703125 44.40625 
Q 38.921875 48.1875 33.109375 48.1875 
Q 26.21875 48.1875 22.15625 43.53125 
Q 18.109375 38.875 18.109375 30.90625 
L 18.109375 0 
L 9.078125 0 
L 9.078125 54.6875 
L 18.109375 54.6875 
L 18.109375 46.1875 
Q 21.1875 51.21875 25.484375 53.609375 
Q 29.78125 56 35.6875 56 
Q 41.65625 56 45.828125 52.96875 
Q 50 49.953125 52 44.1875 
z
" id="DejaVuSans-6d"/>
      <path d="M 45.40625 27.984375 
Q 45.40625 37.75 41.375 43.109375 
Q 37.359375 48.484375 30.078125 48.484375 
Q 22.859375 48.484375 18.828125 43.109375 
Q 14.796875 37.75 14.796875 27.984375 
Q 14.796875 18.265625 18.828125 12.890625 
Q 22.859375 7.515625 30.078125 7.515625 
Q 37.359375 7.515625 41.375 12.890625 
Q 45.40625 18.265625 45.40625 27.984375 
z
M 54.390625 6.78125 
Q 54.390625 -7.171875 48.1875 -13.984375 
Q 42 -20.796875 29.203125 -20.796875 
Q 24.46875 -20.796875 20.265625 -20.09375 
Q 16.0625 -19.390625 12.109375 -17.921875 
L 12.109375 -9.1875 
Q 16.0625 -11.328125 19.921875 -12.34375 
Q 23.78125 -13.375 27.78125 -13.375 
Q 36.625 -13.375 41.015625 -8.765625 
Q 45.40625 -4.15625 45.40625 5.171875 
L 45.40625 9.625 
Q 42.625 4.78125 38.28125 2.390625 
Q 33.9375 0 27.875 0 
Q 17.828125 0 11.671875 7.65625 
Q 5.515625 15.328125 5.515625 27.984375 
Q 5.515625 40.671875 11.671875 48.328125 
Q 17.828125 56 27.875 56 
Q 33.9375 56 38.28125 53.609375 
Q 42.625 51.21875 45.40625 46.390625 
L 45.40625 54.6875 
L 54.390625 54.6875 
z
" id="DejaVuSans-67"/>
      <path d="M 9.421875 54.6875 
L 18.40625 54.6875 
L 18.40625 0 
L 9.421875 0 
z
M 9.421875 75.984375 
L 18.40625 75.984375 
L 18.40625 64.59375 
L 9.421875 64.59375 
z
" id="DejaVuSans-69"/>
      <path d="M 54.890625 33.015625 
L 54.890625 0 
L 45.90625 0 
L 45.90625 32.71875 
Q 45.90625 40.484375 42.875 44.328125 
Q 39.84375 48.1875 33.796875 48.1875 
Q 26.515625 48.1875 22.3125 43.546875 
Q 18.109375 38.921875 18.109375 30.90625 
L 18.109375 0 
L 9.078125 0 
L 9.078125 54.6875 
L 18.109375 54.6875 
L 18.109375 46.1875 
Q 21.34375 51.125 25.703125 53.5625 
Q 30.078125 56 35.796875 56 
Q 45.21875 56 50.046875 50.171875 
Q 54.890625 44.34375 54.890625 33.015625 
z
" id="DejaVuSans-6e"/>
      <path d="M 32.171875 -5.078125 
Q 28.375 -14.84375 24.75 -17.8125 
Q 21.140625 -20.796875 15.09375 -20.796875 
L 7.90625 -20.796875 
L 7.90625 -13.28125 
L 13.1875 -13.28125 
Q 16.890625 -13.28125 18.9375 -11.515625 
Q 21 -9.765625 23.484375 -3.21875 
L 25.09375 0.875 
L 2.984375 54.6875 
L 12.5 54.6875 
L 29.59375 11.921875 
L 46.6875 54.6875 
L 56.203125 54.6875 
z
" id="DejaVuSans-79"/>
     </defs>
     <g transform="translate(91.191719 302.702266)rotate(-90)scale(0.13 -0.13)">
      <use xlink:href="#DejaVuSans-49"/>
      <use x="29.492188" xlink:href="#DejaVuSans-6d"/>
      <use x="126.904297" xlink:href="#DejaVuSans-61"/>
      <use x="188.183594" xlink:href="#DejaVuSans-67"/>
      <use x="251.660156" xlink:href="#DejaVuSans-69"/>
      <use x="279.443359" xlink:href="#DejaVuSans-6e"/>
      <use x="342.822266" xlink:href="#DejaVuSans-61"/>
      <use x="404.101562" xlink:href="#DejaVuSans-72"/>
      <use x="445.214844" xlink:href="#DejaVuSans-79"/>
      <use x="504.394531" xlink:href="#DejaVuSans-20"/>
      <use x="536.181641" xlink:href="#DejaVuSans-70"/>
      <use x="599.658203" xlink:href="#DejaVuSans-61"/>
      <use x="660.9375" xlink:href="#DejaVuSans-72"/>
      <use x="702.050781" xlink:href="#DejaVuSans-74"/>
     </g>
    </g>
   </g>
   <g id="LineCollection_1">
    <path clip-path="url(#p8290c368bd)" d="M 658.813142 448.56 
L 666.577937 442.709548 
L 675.954862 434.908945 
L 680.353634 431.008643 
L 684.528881 427.108342 
L 690.410797 421.257889 
L 692.290932 419.307739 
L 697.695241 413.457286 
L 699.326998 411.507136 
L 701.099709 409.556985 
L 710.396685 397.85608 
L 711.873348 395.90593 
L 713.319018 393.955779 
L 714.844221 391.653286 
L 717.390326 388.105327 
L 718.769849 385.871097 
L 721.218605 382.254874 
L 723.603417 378.354573 
L 725.908135 374.454271 
L 726.991821 372.504121 
L 729.237021 368.603819 
L 731.270024 364.703518 
L 733.291696 360.803216 
L 735.145883 356.902915 
L 737.007781 353.002613 
L 741.868969 341.301709 
L 742.595168 339.351558 
L 744.147122 335.451256 
L 745.467867 331.550955 
L 746.725491 327.650653 
L 748.029558 323.750352 
L 749.148185 319.85005 
L 752.628942 306.198995 
L 753.758518 300.348543 
L 754.490242 296.448241 
L 755.547719 290.597789 
L 756.379547 284.747337 
L 757.023502 278.896884 
L 757.634099 271.096281 
L 757.996785 263.295678 
L 758.172412 253.544925 
L 757.996785 245.744322 
L 757.634099 237.943719 
L 757.023502 230.143116 
L 756.379547 224.292663 
L 755.547719 218.442211 
L 754.490242 212.591759 
L 753.758518 208.691457 
L 752.628942 202.841005 
L 751.224388 196.990553 
L 747.403229 183.339497 
L 745.467867 177.489045 
L 744.147122 173.588744 
L 740.387543 163.83799 
L 736.11875 154.087236 
L 729.237021 140.436181 
L 726.991821 136.535879 
L 726.621106 135.948212 
L 724.813115 132.635578 
L 719.955415 124.834975 
L 718.598288 122.884824 
L 717.390326 120.934673 
L 713.319018 115.084221 
L 708.98155 109.233769 
L 699.326998 97.532864 
L 699.141709 97.334097 
L 697.695241 95.582714 
L 690.410797 87.782111 
L 686.526663 83.881809 
L 682.468518 79.981508 
L 678.218612 76.081206 
L 669.030242 68.280603 
L 658.813142 60.48 
L 658.813142 60.48 
" style="fill:none;stroke:#fff5f0;stroke-width:1.5;"/>
    <path clip-path="url(#p8290c368bd)" d="M 374.386858 60.48 
L 366.622063 66.330452 
L 357.245138 74.131055 
L 352.846366 78.031357 
L 348.671119 81.931658 
L 342.789203 87.782111 
L 340.909068 89.732261 
L 335.504759 95.582714 
L 333.873002 97.532864 
L 332.100291 99.483015 
L 322.803315 111.18392 
L 321.326652 113.13407 
L 319.880982 115.084221 
L 318.355779 117.386714 
L 315.809674 120.934673 
L 314.430151 123.168903 
L 311.981395 126.785126 
L 309.596583 130.685427 
L 307.291865 134.585729 
L 306.208179 136.535879 
L 303.962979 140.436181 
L 301.929976 144.336482 
L 299.908304 148.236784 
L 298.054117 152.137085 
L 296.192219 156.037387 
L 291.331031 167.738291 
L 290.604832 169.688442 
L 289.052878 173.588744 
L 287.732133 177.489045 
L 286.474509 181.389347 
L 285.170442 185.289648 
L 284.051815 189.18995 
L 280.571058 202.841005 
L 279.441482 208.691457 
L 278.709758 212.591759 
L 277.652281 218.442211 
L 276.820453 224.292663 
L 276.176498 230.143116 
L 275.565901 237.943719 
L 275.203215 245.744322 
L 275.027588 255.495075 
L 275.203215 263.295678 
L 275.565901 271.096281 
L 276.176498 278.896884 
L 276.820453 284.747337 
L 277.652281 290.597789 
L 278.709758 296.448241 
L 279.441482 300.348543 
L 280.571058 306.198995 
L 281.975612 312.049447 
L 285.796771 325.700503 
L 287.732133 331.550955 
L 289.052878 335.451256 
L 292.812457 345.20201 
L 297.08125 354.952764 
L 303.962979 368.603819 
L 306.208179 372.504121 
L 306.578894 373.091788 
L 308.386885 376.404422 
L 313.244585 384.205025 
L 314.601712 386.155176 
L 315.809674 388.105327 
L 319.880982 393.955779 
L 324.21845 399.806231 
L 333.873002 411.507136 
L 334.058291 411.705903 
L 335.504759 413.457286 
L 342.789203 421.257889 
L 346.673337 425.158191 
L 350.731482 429.058492 
L 354.981388 432.958794 
L 364.169758 440.759397 
L 374.386858 448.56 
L 374.386858 448.56 
" style="fill:none;stroke:#fff5f0;stroke-width:1.5;"/>
    <path clip-path="url(#p8290c368bd)" d="M 506.78593 409.705512 
L 502.860302 409.411919 
L 495.009045 408.49807 
L 489.214696 407.606834 
L 483.232161 406.411639 
L 479.306533 405.535046 
L 471.455276 403.393767 
L 466.323041 401.756382 
L 459.678392 399.348325 
L 455.752764 397.784999 
L 451.471666 395.90593 
L 447.35945 393.955779 
L 443.513258 392.005628 
L 439.88954 390.055477 
L 433.358516 386.155176 
L 430.336171 384.205025 
L 427.412233 382.254874 
L 424.347739 380.128128 
L 416.496482 374.036888 
L 408.211589 366.653668 
L 400.571658 358.853065 
L 397.14027 354.952764 
L 396.868342 354.654647 
L 393.993173 351.052462 
L 392.427899 349.102312 
L 385.091457 338.815216 
L 381.854586 333.501106 
L 380.699982 331.550955 
L 378.599134 327.650653 
L 377.240201 325.283918 
L 374.697498 319.85005 
L 372.876915 315.949749 
L 368.418937 304.248844 
L 365.363967 294.49809 
L 363.220009 284.747337 
L 361.754112 276.946734 
L 361.462628 274.996583 
L 360.870964 269.146131 
L 360.462225 263.295678 
L 360.25323 257.445226 
L 360.25323 251.594774 
L 360.462225 245.744322 
L 360.870964 239.893869 
L 361.537688 233.426106 
L 362.452313 228.192965 
L 364.044517 220.392362 
L 365.463317 214.12968 
L 369.388945 201.732731 
L 373.729385 191.140101 
L 376.539434 185.289648 
L 377.477724 183.339497 
L 379.671331 179.439196 
L 381.165829 176.604314 
L 384.263652 171.638593 
L 385.47336 169.688442 
L 388.161203 165.788141 
L 389.510352 163.83799 
L 397.14027 154.087236 
L 404.719598 145.800081 
L 412.570854 138.346678 
L 420.422111 131.872585 
L 428.273367 126.17483 
L 436.517557 120.934673 
L 440.050251 118.892479 
L 447.35945 115.084221 
L 451.827136 112.970299 
L 455.924766 111.18392 
L 463.60402 108.23957 
L 467.529648 106.882192 
L 472.511347 105.333467 
L 479.810832 103.383317 
L 487.157789 101.817051 
L 491.083417 101.118813 
L 498.934673 100.041862 
L 504.668267 99.483015 
L 510.711558 99.14962 
L 518.562814 99.056242 
L 526.41407 99.334488 
L 530.339698 99.628081 
L 538.190955 100.54193 
L 543.985304 101.433166 
L 549.967839 102.628361 
L 553.893467 103.504954 
L 561.744724 105.646233 
L 566.876959 107.283618 
L 573.521608 109.691675 
L 577.447236 111.255001 
L 581.728334 113.13407 
L 585.84055 115.084221 
L 589.686742 117.034372 
L 593.31046 118.984523 
L 599.841484 122.884824 
L 602.863829 124.834975 
L 605.787767 126.785126 
L 608.852261 128.911872 
L 616.703518 135.003112 
L 624.988411 142.386332 
L 632.628342 150.186935 
L 636.05973 154.087236 
L 636.331658 154.385353 
L 639.206827 157.987538 
L 640.772101 159.937688 
L 648.108543 170.224784 
L 651.345414 175.538894 
L 652.500018 177.489045 
L 654.600866 181.389347 
L 655.959799 183.756082 
L 658.502502 189.18995 
L 660.323085 193.090251 
L 664.781063 204.791156 
L 667.836033 214.54191 
L 669.979991 224.292663 
L 671.445888 232.093266 
L 671.737372 234.043417 
L 672.329036 239.893869 
L 672.737775 245.744322 
L 672.94677 251.594774 
L 672.94677 257.445226 
L 672.737775 263.295678 
L 672.329036 269.146131 
L 671.662312 275.613894 
L 670.747687 280.847035 
L 669.155483 288.647638 
L 667.736683 294.91032 
L 663.811055 307.307269 
L 659.470615 317.899899 
L 656.660566 323.750352 
L 655.722276 325.700503 
L 653.528669 329.600804 
L 652.034171 332.435686 
L 648.936348 337.401407 
L 647.72664 339.351558 
L 645.038797 343.251859 
L 643.689648 345.20201 
L 636.05973 354.952764 
L 628.480402 363.239919 
L 620.629146 370.693322 
L 612.777889 377.167415 
L 604.926633 382.86517 
L 596.682443 388.105327 
L 593.149749 390.147521 
L 585.84055 393.955779 
L 581.372864 396.069701 
L 577.275234 397.85608 
L 569.59598 400.80043 
L 565.670352 402.157808 
L 560.688653 403.706533 
L 553.389168 405.656683 
L 546.042211 407.222949 
L 542.116583 407.921187 
L 534.265327 408.998138 
L 528.531733 409.556985 
L 522.488442 409.89038 
L 514.637186 409.983758 
L 506.78593 409.705512 
L 506.78593 409.705512 
" style="fill:none;stroke:#fff5f0;stroke-width:1.5;"/>
   </g>
   <g id="LineCollection_2">
    <path clip-path="url(#p8290c368bd)" d="M 645.931247 448.56 
L 654.417102 442.709548 
L 662.174755 436.859095 
L 669.310991 431.008643 
L 678.001736 423.20804 
L 685.884386 415.407437 
L 694.723729 405.656683 
L 704.178935 393.955779 
L 708.457755 388.105327 
L 712.457689 382.254874 
L 717.392421 374.454271 
L 725.048624 360.803216 
L 729.772035 351.052462 
L 731.531031 347.152161 
L 733.205156 343.251859 
L 737.670176 331.550955 
L 739.000162 327.650653 
L 740.312067 323.750352 
L 741.990808 317.899899 
L 743.099787 313.999598 
L 744.611973 308.149146 
L 745.861055 302.298693 
L 748.388354 288.647638 
L 749.160827 282.797186 
L 749.929957 274.996583 
L 750.606906 265.245829 
L 750.857471 257.445226 
L 750.82192 249.644623 
L 750.49828 241.84402 
L 749.763613 232.093266 
L 748.923235 224.292663 
L 748.089117 218.442211 
L 747.049699 212.591759 
L 744.611973 200.890854 
L 743.099787 195.040402 
L 739.000162 181.389347 
L 737.670176 177.489045 
L 736.29335 173.588744 
L 732.397101 163.83799 
L 727.963938 154.087236 
L 720.828299 140.436181 
L 716.197748 132.635578 
L 713.720769 128.735276 
L 709.808413 122.884824 
L 705.640176 117.034372 
L 701.189538 111.18392 
L 693.071501 101.433166 
L 683.439196 91.188139 
L 680.008228 87.782111 
L 671.513108 79.981508 
L 666.973618 76.081206 
L 662.174755 72.180905 
L 654.417102 66.330452 
L 645.931247 60.48 
L 645.931247 60.48 
" style="fill:none;stroke:#fedbcc;stroke-width:1.5;"/>
    <path clip-path="url(#p8290c368bd)" d="M 387.268753 60.48 
L 378.782898 66.330452 
L 371.025245 72.180905 
L 363.889009 78.031357 
L 355.198264 85.83196 
L 347.315614 93.632563 
L 338.476271 103.383317 
L 329.021065 115.084221 
L 324.742245 120.934673 
L 320.742311 126.785126 
L 315.807579 134.585729 
L 308.151376 148.236784 
L 303.427965 157.987538 
L 301.668969 161.887839 
L 299.994844 165.788141 
L 295.529824 177.489045 
L 294.199838 181.389347 
L 292.887933 185.289648 
L 291.209192 191.140101 
L 290.100213 195.040402 
L 288.588027 200.890854 
L 287.338945 206.741307 
L 284.811646 220.392362 
L 284.039173 226.242814 
L 283.270043 234.043417 
L 282.593094 243.794171 
L 282.342529 251.594774 
L 282.37808 259.395377 
L 282.70172 267.19598 
L 283.436387 276.946734 
L 284.276765 284.747337 
L 285.110883 290.597789 
L 286.150301 296.448241 
L 288.588027 308.149146 
L 290.100213 313.999598 
L 294.199838 327.650653 
L 295.529824 331.550955 
L 296.90665 335.451256 
L 300.802899 345.20201 
L 305.236062 354.952764 
L 312.371701 368.603819 
L 317.002252 376.404422 
L 319.479231 380.304724 
L 323.391587 386.155176 
L 327.559824 392.005628 
L 332.010462 397.85608 
L 340.128499 407.606834 
L 349.760804 417.851861 
L 353.191772 421.257889 
L 361.686892 429.058492 
L 366.226382 432.958794 
L 371.025245 436.859095 
L 378.782898 442.709548 
L 387.268753 448.56 
L 387.268753 448.56 
" style="fill:none;stroke:#fedbcc;stroke-width:1.5;"/>
    <path clip-path="url(#p8290c368bd)" d="M 495.009045 415.876284 
L 491.083417 415.325136 
L 483.232161 413.885785 
L 479.306533 413.024416 
L 471.455276 410.994157 
L 466.66699 409.556985 
L 459.678392 407.158155 
L 455.711163 405.656683 
L 447.901508 402.295612 
L 442.738309 399.806231 
L 436.124623 396.311481 
L 432.041634 393.955779 
L 425.905797 390.055477 
L 423.019877 388.105327 
L 420.210045 386.155176 
L 412.570854 380.295334 
L 404.719598 373.435952 
L 396.868342 365.63473 
L 389.017085 356.660127 
L 381.165829 346.130346 
L 375.666473 337.401407 
L 372.326323 331.550955 
L 368.379451 323.750352 
L 364.910391 315.949749 
L 361.250853 306.198995 
L 358.339244 296.448241 
L 357.310684 292.54794 
L 355.704957 284.747337 
L 354.372166 276.946734 
L 353.607435 271.096281 
L 353.154495 265.245829 
L 352.891581 259.395377 
L 352.825359 253.544925 
L 352.957603 247.694472 
L 353.284808 241.84402 
L 353.826682 235.993568 
L 354.676642 230.143116 
L 356.082865 222.342513 
L 357.61206 215.160916 
L 359.480006 208.691457 
L 361.537688 201.931297 
L 365.697936 191.140101 
L 370.280806 181.389347 
L 374.512769 173.588744 
L 378.031074 167.738291 
L 381.917152 161.887839 
L 386.204737 156.037387 
L 389.225504 152.137085 
L 396.868342 143.40527 
L 404.719598 135.604048 
L 412.582788 128.735276 
L 420.422111 122.727104 
L 428.273367 117.417792 
L 435.419609 113.13407 
L 438.973446 111.18392 
L 443.975879 108.610415 
L 451.060997 105.333467 
L 455.752764 103.366492 
L 463.60402 100.500785 
L 467.529648 99.208909 
L 475.380905 96.981283 
L 483.232161 95.154215 
L 491.629362 93.632563 
L 498.934673 92.700401 
L 506.78593 92.032706 
L 514.637186 91.739129 
L 522.488442 91.837509 
L 530.339698 92.321729 
L 538.190955 93.163716 
L 542.116583 93.714864 
L 549.967839 95.154215 
L 553.893467 96.015584 
L 561.744724 98.045843 
L 566.53301 99.483015 
L 573.521608 101.881845 
L 577.488837 103.383317 
L 585.298492 106.744388 
L 590.461691 109.233769 
L 597.075377 112.728519 
L 601.158366 115.084221 
L 607.294203 118.984523 
L 610.180123 120.934673 
L 612.989955 122.884824 
L 620.629146 128.744666 
L 628.480402 135.604048 
L 636.331658 143.40527 
L 644.182915 152.379873 
L 652.034171 162.909654 
L 657.533527 171.638593 
L 660.873677 177.489045 
L 664.820549 185.289648 
L 668.289609 193.090251 
L 671.949147 202.841005 
L 674.860756 212.591759 
L 675.889316 216.49206 
L 677.495043 224.292663 
L 678.827834 232.093266 
L 679.592565 237.943719 
L 680.045505 243.794171 
L 680.308419 249.644623 
L 680.374641 255.495075 
L 680.242397 261.345528 
L 679.915192 267.19598 
L 679.373318 273.046432 
L 678.523358 278.896884 
L 677.117135 286.697487 
L 675.58794 293.879084 
L 673.719994 300.348543 
L 671.662312 307.108703 
L 667.502064 317.899899 
L 662.919194 327.650653 
L 658.687231 335.451256 
L 655.168926 341.301709 
L 651.282848 347.152161 
L 646.995263 353.002613 
L 643.974496 356.902915 
L 636.331658 365.63473 
L 628.480402 373.435952 
L 620.617212 380.304724 
L 612.777889 386.312896 
L 604.926633 391.622208 
L 597.780391 395.90593 
L 594.226554 397.85608 
L 589.224121 400.429585 
L 582.139003 403.706533 
L 577.447236 405.673508 
L 569.59598 408.539215 
L 565.670352 409.831091 
L 557.819095 412.058717 
L 549.967839 413.885785 
L 541.570638 415.407437 
L 534.265327 416.339599 
L 526.41407 417.007294 
L 518.562814 417.300871 
L 510.711558 417.202491 
L 502.860302 416.718271 
L 495.009045 415.876284 
L 495.009045 415.876284 
" style="fill:none;stroke:#fedbcc;stroke-width:1.5;"/>
   </g>
   <g id="LineCollection_3">
    <path clip-path="url(#p8290c368bd)" d="M 636.369737 448.56 
L 642.576256 444.659698 
L 648.325371 440.759397 
L 653.77123 436.859095 
L 661.318984 431.008643 
L 668.244566 425.158191 
L 672.591913 421.257889 
L 678.694134 415.407437 
L 686.187712 407.606834 
L 693.016092 399.806231 
L 697.733898 393.955779 
L 704.939599 384.205025 
L 710.125348 376.404422 
L 717.131983 364.703518 
L 721.276582 356.902915 
L 725.909258 347.152161 
L 730.743451 335.451256 
L 732.252424 331.550955 
L 734.22543 325.700503 
L 737.776734 313.999598 
L 740.667818 302.298693 
L 741.811538 296.448241 
L 743.741785 284.747337 
L 744.45726 278.896884 
L 745.151047 271.096281 
L 745.570969 263.295678 
L 745.730713 255.495075 
L 745.634979 247.694472 
L 745.280985 239.893869 
L 744.657566 232.093266 
L 743.999992 226.242814 
L 743.16241 220.392362 
L 741.45236 210.641608 
L 740.239818 204.791156 
L 738.792898 198.940704 
L 735.521342 187.239799 
L 731.520231 175.538894 
L 726.742503 163.83799 
L 725.909258 161.887839 
L 724.141091 157.987538 
L 719.21926 148.236784 
L 712.583005 136.535879 
L 706.260495 126.785126 
L 703.067337 122.267654 
L 700.714494 118.984523 
L 693.016092 109.233769 
L 684.378978 99.483015 
L 676.718202 91.682412 
L 670.455702 85.83196 
L 663.663396 79.981508 
L 658.866093 76.081206 
L 652.034171 70.917616 
L 648.108543 68.130413 
L 642.576256 64.380302 
L 636.369737 60.48 
L 636.369737 60.48 
" style="fill:none;stroke:#fcaf93;stroke-width:1.5;"/>
    <path clip-path="url(#p8290c368bd)" d="M 396.830263 60.48 
L 390.623744 64.380302 
L 384.874629 68.280603 
L 379.42877 72.180905 
L 371.881016 78.031357 
L 364.955434 83.881809 
L 360.608087 87.782111 
L 354.505866 93.632563 
L 347.012288 101.433166 
L 340.183908 109.233769 
L 335.466102 115.084221 
L 328.260401 124.834975 
L 323.074652 132.635578 
L 316.068017 144.336482 
L 311.923418 152.137085 
L 307.290742 161.887839 
L 302.456549 173.588744 
L 300.947576 177.489045 
L 298.97457 183.339497 
L 295.423266 195.040402 
L 292.532182 206.741307 
L 291.388462 212.591759 
L 289.458215 224.292663 
L 288.74274 230.143116 
L 288.048953 237.943719 
L 287.629031 245.744322 
L 287.469287 253.544925 
L 287.565021 261.345528 
L 287.919015 269.146131 
L 288.542434 276.946734 
L 289.200008 282.797186 
L 290.03759 288.647638 
L 291.74764 298.398392 
L 292.960182 304.248844 
L 294.407102 310.099296 
L 297.678658 321.800201 
L 301.679769 333.501106 
L 306.457497 345.20201 
L 307.290742 347.152161 
L 309.058909 351.052462 
L 313.98074 360.803216 
L 320.616995 372.504121 
L 326.939505 382.254874 
L 330.132663 386.772346 
L 332.485506 390.055477 
L 340.183908 399.806231 
L 348.821022 409.556985 
L 356.481798 417.357588 
L 362.744298 423.20804 
L 369.536604 429.058492 
L 374.333907 432.958794 
L 381.165829 438.122384 
L 385.091457 440.909587 
L 390.623744 444.659698 
L 396.830263 448.56 
L 396.830263 448.56 
" style="fill:none;stroke:#fcaf93;stroke-width:1.5;"/>
    <path clip-path="url(#p8290c368bd)" d="M 498.934673 421.469006 
L 495.009045 421.011386 
L 487.157789 419.813656 
L 483.232161 419.082221 
L 475.380905 417.322966 
L 467.529648 415.15224 
L 459.678392 412.565097 
L 455.752764 411.121292 
L 451.794757 409.556985 
L 443.975879 406.086249 
L 439.159525 403.706533 
L 432.198995 399.947536 
L 428.273367 397.625087 
L 422.560956 393.955779 
L 419.67617 392.005628 
L 414.324774 388.105327 
L 411.775757 386.155176 
L 407.018538 382.254874 
L 404.700917 380.304724 
L 396.868342 372.96197 
L 392.661119 368.603819 
L 387.500252 362.753367 
L 384.270315 358.853065 
L 379.822384 353.002613 
L 375.74842 347.152161 
L 372.021306 341.301709 
L 368.608212 335.451256 
L 364.557697 327.650653 
L 360.98651 319.85005 
L 357.61206 311.343322 
L 355.289832 304.248844 
L 353.518831 298.398392 
L 351.657372 290.597789 
L 350.071039 282.797186 
L 349.445673 278.896884 
L 348.723335 273.046432 
L 348.188782 267.19598 
L 347.850072 261.345528 
L 347.7135 255.495075 
L 347.781866 249.644623 
L 348.053751 243.794171 
L 348.523877 237.943719 
L 349.184524 232.093266 
L 350.071039 226.242814 
L 351.657372 218.442211 
L 353.518831 210.641608 
L 354.079613 208.691457 
L 357.189433 198.940704 
L 357.88464 196.990553 
L 361.816738 187.239799 
L 365.475034 179.439196 
L 370.859813 169.688442 
L 374.463383 163.83799 
L 378.419808 157.987538 
L 382.758488 152.137085 
L 385.850472 148.236784 
L 390.918949 142.386332 
L 392.942714 140.125513 
L 400.79397 132.28413 
L 408.645226 125.389685 
L 414.324774 120.934673 
L 416.920987 118.984523 
L 422.560956 115.084221 
L 425.548205 113.13407 
L 428.66156 111.18392 
L 435.460804 107.283618 
L 440.050251 104.873245 
L 447.284465 101.433166 
L 451.827136 99.469399 
L 459.678392 96.474903 
L 463.60402 95.127948 
L 468.394959 93.632563 
L 475.522925 91.682412 
L 484.398609 89.732261 
L 491.083417 88.587596 
L 498.934673 87.570994 
L 506.78593 86.945831 
L 514.637186 86.673961 
L 522.488442 86.764866 
L 530.339698 87.215259 
L 538.190955 88.028614 
L 546.042211 89.226344 
L 549.967839 89.957779 
L 557.819095 91.717034 
L 565.670352 93.88776 
L 573.521608 96.474903 
L 577.447236 97.918708 
L 581.405243 99.483015 
L 589.224121 102.953751 
L 594.040475 105.333467 
L 601.001005 109.092464 
L 604.926633 111.414913 
L 610.639044 115.084221 
L 613.52383 117.034372 
L 618.875226 120.934673 
L 621.424243 122.884824 
L 626.181462 126.785126 
L 628.499083 128.735276 
L 636.331658 136.07803 
L 640.538881 140.436181 
L 645.699748 146.286633 
L 648.929685 150.186935 
L 653.377616 156.037387 
L 657.45158 161.887839 
L 661.178694 167.738291 
L 664.591788 173.588744 
L 668.642303 181.389347 
L 672.21349 189.18995 
L 675.58794 197.696678 
L 677.910168 204.791156 
L 679.681169 210.641608 
L 681.542628 218.442211 
L 683.128961 226.242814 
L 683.754327 230.143116 
L 684.476665 235.993568 
L 685.011218 241.84402 
L 685.349928 247.694472 
L 685.4865 253.544925 
L 685.418134 259.395377 
L 685.146249 265.245829 
L 684.676123 271.096281 
L 684.015476 276.946734 
L 683.128961 282.797186 
L 681.542628 290.597789 
L 679.681169 298.398392 
L 679.120387 300.348543 
L 676.010567 310.099296 
L 675.31536 312.049447 
L 671.383262 321.800201 
L 667.724966 329.600804 
L 662.340187 339.351558 
L 658.736617 345.20201 
L 654.780192 351.052462 
L 650.441512 356.902915 
L 647.349528 360.803216 
L 642.281051 366.653668 
L 640.257286 368.914487 
L 632.40603 376.75587 
L 624.554774 383.650315 
L 618.875226 388.105327 
L 616.279013 390.055477 
L 610.639044 393.955779 
L 607.651795 395.90593 
L 604.53844 397.85608 
L 597.739196 401.756382 
L 593.149749 404.166755 
L 585.915535 407.606834 
L 581.372864 409.570601 
L 573.521608 412.565097 
L 569.59598 413.912052 
L 564.805041 415.407437 
L 557.677075 417.357588 
L 548.801391 419.307739 
L 542.116583 420.452404 
L 534.265327 421.469006 
L 526.41407 422.094169 
L 518.562814 422.366039 
L 510.711558 422.275134 
L 502.860302 421.824741 
L 498.934673 421.469006 
L 498.934673 421.469006 
" style="fill:none;stroke:#fcaf93;stroke-width:1.5;"/>
   </g>
   <g id="LineCollection_4">
    <path clip-path="url(#p8290c368bd)" d="M 628.057169 448.56 
L 632.40603 446.035196 
L 637.805143 442.709548 
L 644.182915 438.496509 
L 649.281125 434.908945 
L 655.959799 429.863051 
L 659.885427 426.708232 
L 664.043059 423.20804 
L 668.456016 419.307739 
L 674.648869 413.457286 
L 680.399498 407.606834 
L 685.752677 401.756382 
L 692.321003 393.955779 
L 696.873798 388.105327 
L 701.121329 382.254874 
L 706.334615 374.454271 
L 711.097442 366.653668 
L 713.350221 362.753367 
L 717.495523 354.952764 
L 721.261394 347.152161 
L 724.665574 339.351558 
L 727.712626 331.550955 
L 729.770744 325.700503 
L 732.838909 315.949749 
L 734.910008 308.149146 
L 736.307735 302.298693 
L 737.497992 296.448241 
L 738.846531 288.647638 
L 739.699407 282.797186 
L 740.374963 276.946734 
L 741.020769 269.146131 
L 741.389969 261.345528 
L 741.490141 253.544925 
L 741.323069 245.744322 
L 740.885713 237.943719 
L 740.168589 230.143116 
L 739.435613 224.292663 
L 738.190782 216.49206 
L 737.122273 210.641608 
L 735.866674 204.791156 
L 733.90078 196.990553 
L 732.27058 191.140101 
L 729.770744 183.339497 
L 727.712626 177.489045 
L 723.844153 167.738291 
L 719.415486 157.987538 
L 714.403027 148.236784 
L 712.251739 144.336482 
L 706.992965 135.644796 
L 703.784615 130.685427 
L 698.308304 122.884824 
L 693.871937 117.034372 
L 689.116608 111.18392 
L 682.225557 103.383317 
L 676.61659 97.532864 
L 670.574868 91.682412 
L 666.288573 87.782111 
L 659.399044 81.931658 
L 654.494502 78.031357 
L 648.108543 73.288739 
L 643.723926 70.230754 
L 636.331658 65.401184 
L 631.43266 62.430151 
L 628.057169 60.48 
L 628.057169 60.48 
" style="fill:none;stroke:#fc8161;stroke-width:1.5;"/>
    <path clip-path="url(#p8290c368bd)" d="M 405.142831 60.48 
L 400.79397 63.004804 
L 395.394857 66.330452 
L 389.017085 70.543491 
L 383.918875 74.131055 
L 377.240201 79.176949 
L 373.314573 82.331768 
L 369.156941 85.83196 
L 364.743984 89.732261 
L 358.551131 95.582714 
L 352.800502 101.433166 
L 347.447323 107.283618 
L 340.878997 115.084221 
L 336.326202 120.934673 
L 332.078671 126.785126 
L 326.865385 134.585729 
L 322.102558 142.386332 
L 319.849779 146.286633 
L 315.704477 154.087236 
L 311.938606 161.887839 
L 308.534426 169.688442 
L 305.487374 177.489045 
L 303.429256 183.339497 
L 300.361091 193.090251 
L 298.289992 200.890854 
L 296.892265 206.741307 
L 295.702008 212.591759 
L 294.353469 220.392362 
L 293.500593 226.242814 
L 292.825037 232.093266 
L 292.179231 239.893869 
L 291.810031 247.694472 
L 291.709859 255.495075 
L 291.876931 263.295678 
L 292.314287 271.096281 
L 293.031411 278.896884 
L 293.764387 284.747337 
L 295.009218 292.54794 
L 296.077727 298.398392 
L 297.333326 304.248844 
L 299.29922 312.049447 
L 300.92942 317.899899 
L 303.429256 325.700503 
L 305.487374 331.550955 
L 309.355847 341.301709 
L 313.784514 351.052462 
L 318.796973 360.803216 
L 320.948261 364.703518 
L 326.207035 373.395204 
L 329.415385 378.354573 
L 334.891696 386.155176 
L 339.328063 392.005628 
L 344.083392 397.85608 
L 350.974443 405.656683 
L 356.58341 411.507136 
L 362.625132 417.357588 
L 366.911427 421.257889 
L 373.800956 427.108342 
L 378.705498 431.008643 
L 385.091457 435.751261 
L 389.476074 438.809246 
L 396.868342 443.638816 
L 401.76734 446.609849 
L 405.142831 448.56 
L 405.142831 448.56 
" style="fill:none;stroke:#fc8161;stroke-width:1.5;"/>
    <path clip-path="url(#p8290c368bd)" d="M 495.009045 425.259317 
L 491.083417 424.717572 
L 483.232161 423.376674 
L 479.306533 422.556834 
L 471.455276 420.645307 
L 463.60402 418.338976 
L 459.678392 417.038608 
L 451.827136 414.107485 
L 445.700536 411.507136 
L 440.050251 408.873991 
L 433.8218 405.656683 
L 428.273367 402.535306 
L 423.798582 399.806231 
L 417.904077 395.90593 
L 415.13174 393.955779 
L 409.91442 390.055477 
L 407.449108 388.105327 
L 402.792376 384.205025 
L 398.441799 380.304724 
L 396.351561 378.354573 
L 390.556571 372.504121 
L 386.972851 368.603819 
L 383.596665 364.703518 
L 380.406213 360.803216 
L 375.991973 354.952764 
L 371.943656 349.102312 
L 368.233312 343.251859 
L 364.8324 337.401407 
L 360.778556 329.600804 
L 357.19986 321.800201 
L 353.686432 312.93262 
L 352.067168 308.149146 
L 349.657712 300.348543 
L 348.180221 294.49809 
L 346.87779 288.647638 
L 345.756212 282.797186 
L 344.906121 276.946734 
L 344.247398 271.096281 
L 343.782354 265.245829 
L 343.51478 259.395377 
L 343.447654 253.544925 
L 343.581811 247.694472 
L 343.915616 241.84402 
L 344.445624 235.993568 
L 345.168236 230.143116 
L 346.105277 224.292663 
L 347.292877 218.442211 
L 348.652753 212.591759 
L 350.230071 206.741307 
L 352.712109 198.940704 
L 354.092632 195.040402 
L 357.61206 186.260875 
L 361.537688 177.859972 
L 365.463317 170.480314 
L 369.399088 163.83799 
L 374.605904 156.037387 
L 377.395767 152.137085 
L 381.975677 146.286633 
L 386.972851 140.436181 
L 390.556571 136.535879 
L 394.371446 132.635578 
L 398.441799 128.735276 
L 402.792376 124.834975 
L 407.449108 120.934673 
L 409.91442 118.984523 
L 415.13174 115.084221 
L 417.904077 113.13407 
L 423.798582 109.233769 
L 428.273367 106.504694 
L 433.8218 103.383317 
L 440.050251 100.166009 
L 445.700536 97.532864 
L 451.827136 94.932515 
L 455.752764 93.40928 
L 463.60402 90.701024 
L 467.529648 89.49164 
L 475.380905 87.387383 
L 483.232161 85.663326 
L 491.083417 84.322428 
L 498.934673 83.342534 
L 506.78593 82.724091 
L 514.637186 82.456809 
L 522.488442 82.54607 
L 530.339698 82.989961 
L 538.190955 83.780683 
L 542.116583 84.322428 
L 549.967839 85.663326 
L 553.893467 86.483166 
L 561.744724 88.394693 
L 569.59598 90.701024 
L 573.521608 92.001392 
L 581.372864 94.932515 
L 587.499464 97.532864 
L 593.149749 100.166009 
L 599.3782 103.383317 
L 604.926633 106.504694 
L 609.401418 109.233769 
L 615.295923 113.13407 
L 618.06826 115.084221 
L 623.28558 118.984523 
L 625.750892 120.934673 
L 630.407624 124.834975 
L 634.758201 128.735276 
L 636.848439 130.685427 
L 642.643429 136.535879 
L 646.227149 140.436181 
L 649.603335 144.336482 
L 652.793787 148.236784 
L 657.208027 154.087236 
L 661.256344 159.937688 
L 664.966688 165.788141 
L 668.3676 171.638593 
L 672.421444 179.439196 
L 676.00014 187.239799 
L 679.513568 196.10738 
L 681.132832 200.890854 
L 683.542288 208.691457 
L 685.019779 214.54191 
L 686.32221 220.392362 
L 687.443788 226.242814 
L 688.293879 232.093266 
L 688.952602 237.943719 
L 689.417646 243.794171 
L 689.68522 249.644623 
L 689.752346 255.495075 
L 689.618189 261.345528 
L 689.284384 267.19598 
L 688.754376 273.046432 
L 688.031764 278.896884 
L 687.094723 284.747337 
L 685.907123 290.597789 
L 684.547247 296.448241 
L 682.969929 302.298693 
L 680.487891 310.099296 
L 679.107368 313.999598 
L 675.58794 322.779125 
L 671.662312 331.180028 
L 667.736683 338.559686 
L 663.800912 345.20201 
L 658.594096 353.002613 
L 655.804233 356.902915 
L 651.224323 362.753367 
L 646.227149 368.603819 
L 642.643429 372.504121 
L 638.828554 376.404422 
L 634.758201 380.304724 
L 630.407624 384.205025 
L 625.750892 388.105327 
L 623.28558 390.055477 
L 618.06826 393.955779 
L 615.295923 395.90593 
L 609.401418 399.806231 
L 604.926633 402.535306 
L 599.3782 405.656683 
L 593.149749 408.873991 
L 587.499464 411.507136 
L 581.372864 414.107485 
L 577.447236 415.63072 
L 569.59598 418.338976 
L 565.670352 419.54836 
L 557.819095 421.652617 
L 549.967839 423.376674 
L 542.116583 424.717572 
L 534.265327 425.697466 
L 526.41407 426.315909 
L 518.562814 426.583191 
L 510.711558 426.49393 
L 502.860302 426.050039 
L 495.009045 425.259317 
L 495.009045 425.259317 
" style="fill:none;stroke:#fc8161;stroke-width:1.5;"/>
   </g>
   <g id="LineCollection_5">
    <path clip-path="url(#p8290c368bd)" d="M 620.085126 448.56 
L 624.554774 446.144971 
L 630.505211 442.709548 
L 636.796237 438.809246 
L 644.182915 433.84274 
L 648.122319 431.008643 
L 653.267236 427.108342 
L 659.885427 421.725658 
L 664.896748 417.357588 
L 671.151391 411.507136 
L 675.58794 407.071571 
L 680.592419 401.756382 
L 685.72626 395.90593 
L 690.507311 390.055477 
L 695.21608 383.866133 
L 699.141709 378.338216 
L 703.067337 372.422294 
L 706.63901 366.653668 
L 710.018199 360.803216 
L 713.165459 354.952764 
L 717.009878 347.152161 
L 720.4814 339.351558 
L 723.593924 331.550955 
L 725.697889 325.700503 
L 728.234791 317.899899 
L 729.909666 312.049447 
L 731.899562 304.248844 
L 733.177852 298.398392 
L 734.625713 290.597789 
L 735.537163 284.747337 
L 736.484538 276.946734 
L 737.144193 269.146131 
L 737.524662 261.345528 
L 737.628336 253.544925 
L 737.455531 245.744322 
L 737.005639 237.943719 
L 736.275221 230.143116 
L 735.537163 224.292663 
L 734.472362 217.572013 
L 733.177852 210.641608 
L 731.899562 204.791156 
L 730.429536 198.940704 
L 728.813934 193.090251 
L 727.003829 187.239799 
L 724.320163 179.439196 
L 722.070973 173.588744 
L 719.646764 167.738291 
L 716.087142 159.937688 
L 712.146123 152.137085 
L 707.800138 144.336482 
L 703.067337 136.617706 
L 700.466202 132.635578 
L 696.397039 126.785126 
L 691.290452 119.985076 
L 687.352835 115.084221 
L 682.340812 109.233769 
L 676.957072 103.383317 
L 671.151391 97.532864 
L 667.033274 93.632563 
L 662.694133 89.732261 
L 658.11377 85.83196 
L 652.034171 80.974444 
L 648.108543 78.021201 
L 642.645479 74.131055 
L 636.331658 69.930786 
L 630.505211 66.330452 
L 624.554774 62.895029 
L 620.085126 60.48 
L 620.085126 60.48 
" style="fill:none;stroke:#f44f39;stroke-width:1.5;"/>
    <path clip-path="url(#p8290c368bd)" d="M 413.114874 60.48 
L 408.645226 62.895029 
L 402.694789 66.330452 
L 396.403763 70.230754 
L 389.017085 75.19726 
L 385.077681 78.031357 
L 379.932764 81.931658 
L 373.314573 87.314342 
L 368.303252 91.682412 
L 362.048609 97.532864 
L 357.61206 101.968429 
L 352.607581 107.283618 
L 347.47374 113.13407 
L 342.692689 118.984523 
L 337.98392 125.173867 
L 334.058291 130.701784 
L 330.132663 136.617706 
L 326.56099 142.386332 
L 323.181801 148.236784 
L 320.034541 154.087236 
L 316.190122 161.887839 
L 312.7186 169.688442 
L 309.606076 177.489045 
L 307.502111 183.339497 
L 304.965209 191.140101 
L 303.290334 196.990553 
L 301.300438 204.791156 
L 300.022148 210.641608 
L 298.574287 218.442211 
L 297.662837 224.292663 
L 296.715462 232.093266 
L 296.055807 239.893869 
L 295.675338 247.694472 
L 295.571664 255.495075 
L 295.744469 263.295678 
L 296.194361 271.096281 
L 296.924779 278.896884 
L 297.662837 284.747337 
L 298.727638 291.467987 
L 300.022148 298.398392 
L 301.300438 304.248844 
L 302.770464 310.099296 
L 304.386066 315.949749 
L 306.196171 321.800201 
L 308.879837 329.600804 
L 311.129027 335.451256 
L 313.553236 341.301709 
L 317.112858 349.102312 
L 321.053877 356.902915 
L 325.399862 364.703518 
L 330.132663 372.422294 
L 332.733798 376.404422 
L 336.802961 382.254874 
L 341.909548 389.054924 
L 345.847165 393.955779 
L 350.859188 399.806231 
L 356.242928 405.656683 
L 362.048609 411.507136 
L 366.166726 415.407437 
L 370.505867 419.307739 
L 375.08623 423.20804 
L 381.165829 428.065556 
L 385.091457 431.018799 
L 390.554521 434.908945 
L 396.868342 439.109214 
L 402.694789 442.709548 
L 408.645226 446.144971 
L 413.114874 448.56 
L 413.114874 448.56 
" style="fill:none;stroke:#f44f39;stroke-width:1.5;"/>
    <path clip-path="url(#p8290c368bd)" d="M 495.009045 429.105096 
L 487.157789 427.965264 
L 479.306533 426.467636 
L 471.455276 424.599828 
L 463.60402 422.348545 
L 455.752764 419.70101 
L 449.684311 417.357588 
L 443.975879 414.934172 
L 436.757071 411.507136 
L 432.198995 409.139962 
L 426.050772 405.656683 
L 420.422111 402.19617 
L 416.496482 399.598723 
L 411.294321 395.90593 
L 406.190084 392.005628 
L 401.435162 388.105327 
L 399.188102 386.155176 
L 394.903867 382.254874 
L 390.886735 378.354573 
L 387.112386 374.454271 
L 383.559154 370.55397 
L 380.208224 366.653668 
L 375.548435 360.803216 
L 371.272177 354.952764 
L 367.348853 349.102312 
L 363.751105 343.251859 
L 360.454408 337.401407 
L 357.440146 331.550955 
L 354.718661 325.700503 
L 352.235652 319.85005 
L 349.760804 313.358908 
L 348.003114 308.149146 
L 345.835176 300.92929 
L 344.671914 296.448241 
L 343.340418 290.597789 
L 342.199799 284.747337 
L 341.272034 278.896884 
L 340.554948 273.046432 
L 340.034628 267.19598 
L 339.709282 261.345528 
L 339.579025 255.495075 
L 339.644164 249.644623 
L 339.904528 243.794171 
L 340.359799 237.943719 
L 341.010875 232.093266 
L 341.909548 225.963402 
L 342.939494 220.392362 
L 344.20602 214.54191 
L 345.835176 208.11071 
L 347.389849 202.841005 
L 349.299366 196.990553 
L 351.468413 191.140101 
L 353.852407 185.289648 
L 356.507322 179.439196 
L 359.42858 173.588744 
L 362.622062 167.738291 
L 366.11009 161.887839 
L 369.919722 156.037387 
L 374.078759 150.186935 
L 378.614973 144.336482 
L 381.858603 140.436181 
L 385.296881 136.535879 
L 390.886735 130.685427 
L 394.903867 126.785126 
L 399.188102 122.884824 
L 403.767299 118.984523 
L 408.676338 115.084221 
L 414.002897 111.18392 
L 419.74898 107.283618 
L 424.347739 104.393503 
L 429.429262 101.433166 
L 436.124623 97.847048 
L 440.767541 95.582714 
L 447.901508 92.408504 
L 454.701563 89.732261 
L 460.229746 87.782111 
L 467.529648 85.514888 
L 475.380905 83.457658 
L 483.232161 81.774977 
L 491.083417 80.461613 
L 498.934673 79.501854 
L 506.78593 78.896099 
L 514.637186 78.636228 
L 522.488442 78.722887 
L 530.339698 79.155742 
L 538.542445 79.981508 
L 546.042211 81.074736 
L 553.893467 82.572364 
L 561.744724 84.440172 
L 569.59598 86.691455 
L 577.447236 89.33899 
L 583.515689 91.682412 
L 589.224121 94.105828 
L 596.442929 97.532864 
L 601.001005 99.900038 
L 607.149228 103.383317 
L 612.777889 106.84383 
L 616.703518 109.441277 
L 621.905679 113.13407 
L 627.009916 117.034372 
L 631.764838 120.934673 
L 634.011898 122.884824 
L 638.296133 126.785126 
L 642.313265 130.685427 
L 646.087614 134.585729 
L 649.640846 138.48603 
L 652.991776 142.386332 
L 657.651565 148.236784 
L 661.927823 154.087236 
L 665.851147 159.937688 
L 669.448895 165.788141 
L 672.745592 171.638593 
L 675.759854 177.489045 
L 678.481339 183.339497 
L 680.964348 189.18995 
L 683.439196 195.681092 
L 685.196886 200.890854 
L 687.364824 208.11071 
L 688.528086 212.591759 
L 689.859582 218.442211 
L 691.000201 224.292663 
L 691.927966 230.143116 
L 692.645052 235.993568 
L 693.165372 241.84402 
L 693.490718 247.694472 
L 693.620975 253.544925 
L 693.555836 259.395377 
L 693.295472 265.245829 
L 692.840201 271.096281 
L 692.189125 276.946734 
L 691.290452 283.076598 
L 690.260506 288.647638 
L 688.99398 294.49809 
L 687.364824 300.92929 
L 685.810151 306.198995 
L 683.900634 312.049447 
L 681.731587 317.899899 
L 679.347593 323.750352 
L 676.692678 329.600804 
L 673.77142 335.451256 
L 670.577938 341.301709 
L 667.08991 347.152161 
L 663.280278 353.002613 
L 659.121241 358.853065 
L 654.585027 364.703518 
L 651.341397 368.603819 
L 647.903119 372.504121 
L 642.313265 378.354573 
L 638.296133 382.254874 
L 634.011898 386.155176 
L 629.432701 390.055477 
L 624.523662 393.955779 
L 619.197103 397.85608 
L 613.45102 401.756382 
L 608.852261 404.646497 
L 603.770738 407.606834 
L 597.075377 411.192952 
L 592.432459 413.457286 
L 585.298492 416.631496 
L 578.498437 419.307739 
L 572.970254 421.257889 
L 565.670352 423.525112 
L 557.819095 425.582342 
L 549.967839 427.265023 
L 542.116583 428.578387 
L 534.265327 429.538146 
L 526.41407 430.143901 
L 518.562814 430.403772 
L 510.711558 430.317113 
L 502.860302 429.884258 
L 495.009045 429.105096 
L 495.009045 429.105096 
" style="fill:none;stroke:#f44f39;stroke-width:1.5;"/>
   </g>
   <g id="LineCollection_6">
    <path clip-path="url(#p8290c368bd)" d="M 611.852483 448.56 
L 616.703518 446.139486 
L 624.554774 441.88386 
L 629.77852 438.809246 
L 636.331658 434.684614 
L 644.182915 429.284972 
L 649.70422 425.158191 
L 654.619353 421.257889 
L 659.885427 416.826443 
L 665.752771 411.507136 
L 669.803949 407.606834 
L 673.653184 403.706533 
L 677.315517 399.806231 
L 680.804745 395.90593 
L 685.722629 390.055477 
L 688.819023 386.155176 
L 693.189411 380.304724 
L 697.26467 374.454271 
L 701.063373 368.603819 
L 704.603349 362.753367 
L 707.900746 356.902915 
L 711.925302 349.102312 
L 715.563488 341.301709 
L 718.835538 333.501106 
L 721.729444 325.700503 
L 723.700567 319.85005 
L 726.027256 312.049447 
L 727.571567 306.198995 
L 729.342159 298.398392 
L 730.840715 290.597789 
L 732.011075 282.797186 
L 732.897196 274.996583 
L 733.503758 267.19598 
L 733.827234 259.395377 
L 733.863302 251.594774 
L 733.611369 243.794171 
L 733.075107 235.993568 
L 732.258848 228.192965 
L 731.160767 220.392362 
L 730.12923 214.54191 
L 728.491295 206.741307 
L 726.621106 199.116574 
L 724.895655 193.090251 
L 722.695477 186.099634 
L 720.318721 179.439196 
L 718.036974 173.588744 
L 714.693526 165.788141 
L 710.918593 157.891042 
L 706.836199 150.186935 
L 702.273817 142.386332 
L 698.567801 136.535879 
L 694.585753 130.685427 
L 690.309724 124.834975 
L 685.722629 118.984523 
L 682.483037 115.084221 
L 677.315517 109.233769 
L 673.653184 105.333467 
L 669.803949 101.433166 
L 665.752771 97.532864 
L 661.483447 93.632563 
L 655.959799 88.874364 
L 649.70422 83.881809 
L 644.182915 79.755028 
L 638.904271 76.081206 
L 632.40603 71.839936 
L 624.554774 67.15614 
L 619.509489 64.380302 
L 612.777889 60.925905 
L 611.852483 60.48 
L 611.852483 60.48 
" style="fill:none;stroke:#d52221;stroke-width:1.5;"/>
    <path clip-path="url(#p8290c368bd)" d="M 421.347517 60.48 
L 416.496482 62.900514 
L 408.645226 67.15614 
L 403.42148 70.230754 
L 396.868342 74.355386 
L 389.017085 79.755028 
L 383.49578 83.881809 
L 378.580647 87.782111 
L 373.314573 92.213557 
L 367.447229 97.532864 
L 363.396051 101.433166 
L 359.546816 105.333467 
L 355.884483 109.233769 
L 352.395255 113.13407 
L 347.477371 118.984523 
L 344.380977 122.884824 
L 340.010589 128.735276 
L 335.93533 134.585729 
L 332.136627 140.436181 
L 328.596651 146.286633 
L 325.299254 152.137085 
L 321.274698 159.937688 
L 317.636512 167.738291 
L 314.364462 175.538894 
L 311.470556 183.339497 
L 309.499433 189.18995 
L 307.172744 196.990553 
L 305.628433 202.841005 
L 303.857841 210.641608 
L 302.359285 218.442211 
L 301.188925 226.242814 
L 300.302804 234.043417 
L 299.696242 241.84402 
L 299.372766 249.644623 
L 299.336698 257.445226 
L 299.588631 265.245829 
L 300.124893 273.046432 
L 300.941152 280.847035 
L 302.039233 288.647638 
L 303.07077 294.49809 
L 304.708705 302.298693 
L 306.578894 309.923426 
L 308.304345 315.949749 
L 310.504523 322.940366 
L 312.881279 329.600804 
L 315.163026 335.451256 
L 318.506474 343.251859 
L 322.281407 351.148958 
L 326.363801 358.853065 
L 330.926183 366.653668 
L 334.632199 372.504121 
L 338.614247 378.354573 
L 342.890276 384.205025 
L 347.477371 390.055477 
L 350.716963 393.955779 
L 355.884483 399.806231 
L 359.546816 403.706533 
L 363.396051 407.606834 
L 367.447229 411.507136 
L 371.716553 415.407437 
L 377.240201 420.165636 
L 383.49578 425.158191 
L 389.017085 429.284972 
L 394.295729 432.958794 
L 400.79397 437.200064 
L 408.645226 441.88386 
L 413.690511 444.659698 
L 420.422111 448.114095 
L 421.347517 448.56 
L 421.347517 448.56 
" style="fill:none;stroke:#d52221;stroke-width:1.5;"/>
    <path clip-path="url(#p8290c368bd)" d="M 498.934673 433.264362 
L 491.083417 432.326268 
L 483.1006 431.008643 
L 475.380905 429.392613 
L 467.529648 427.379673 
L 459.678392 424.98527 
L 451.827136 422.199272 
L 443.975879 418.990625 
L 436.124623 415.34155 
L 428.79406 411.507136 
L 424.347739 408.974519 
L 418.945313 405.656683 
L 412.570854 401.40082 
L 407.676253 397.85608 
L 402.663313 393.955779 
L 396.868342 389.077594 
L 392.942714 385.525197 
L 389.017085 381.754603 
L 385.091457 377.745862 
L 381.165829 373.47461 
L 377.240201 368.910692 
L 375.383858 366.653668 
L 370.874193 360.803216 
L 366.730006 354.952764 
L 362.920558 349.102312 
L 359.421461 343.251859 
L 356.215067 337.401407 
L 353.294823 331.550955 
L 350.628851 325.700503 
L 348.197304 319.85005 
L 345.835176 313.429469 
L 344.060637 308.149146 
L 342.343238 302.298693 
L 340.347271 294.49809 
L 339.114995 288.647638 
L 337.98392 282.129431 
L 337.230347 276.946734 
L 336.582567 271.096281 
L 336.134709 265.245829 
L 335.880397 259.395377 
L 335.816973 253.544925 
L 335.94388 247.694472 
L 336.262274 241.84402 
L 336.775808 235.993568 
L 337.492702 230.143116 
L 338.75048 222.342513 
L 339.912439 216.49206 
L 341.296112 210.641608 
L 343.462879 202.841005 
L 345.345725 196.990553 
L 348.197304 189.18995 
L 350.628851 183.339497 
L 353.294823 177.489045 
L 357.260585 169.688442 
L 361.537688 162.209544 
L 364.149005 157.987538 
L 368.067254 152.137085 
L 372.332796 146.286633 
L 377.240201 140.129308 
L 381.165829 135.56539 
L 385.671588 130.685427 
L 389.524819 126.785126 
L 393.62323 122.884824 
L 397.992358 118.984523 
L 402.663313 115.084221 
L 408.645226 110.461185 
L 413.085286 107.283618 
L 418.945313 103.383317 
L 424.347739 100.065481 
L 428.79406 97.532864 
L 436.260599 93.632563 
L 443.975879 90.049375 
L 449.438317 87.782111 
L 455.752764 85.396074 
L 463.60402 82.80663 
L 471.455276 80.606645 
L 479.306533 78.778737 
L 487.157789 77.312513 
L 495.009045 76.204071 
L 502.860302 75.433852 
L 510.711558 75.009746 
L 518.562814 74.925273 
L 526.41407 75.17902 
L 534.265327 75.775638 
L 542.116583 76.713732 
L 550.0994 78.031357 
L 557.819095 79.647387 
L 565.670352 81.660327 
L 573.521608 84.05473 
L 581.372864 86.840728 
L 589.224121 90.049375 
L 597.075377 93.69845 
L 604.40594 97.532864 
L 608.852261 100.065481 
L 614.254687 103.383317 
L 620.629146 107.63918 
L 625.523747 111.18392 
L 630.536687 115.084221 
L 636.331658 119.962406 
L 640.257286 123.514803 
L 644.182915 127.285397 
L 648.108543 131.294138 
L 652.034171 135.56539 
L 655.959799 140.129308 
L 657.816142 142.386332 
L 662.325807 148.236784 
L 666.469994 154.087236 
L 670.279442 159.937688 
L 673.778539 165.788141 
L 676.984933 171.638593 
L 679.905177 177.489045 
L 682.571149 183.339497 
L 685.002696 189.18995 
L 687.364824 195.610531 
L 689.139363 200.890854 
L 690.856762 206.741307 
L 692.852729 214.54191 
L 694.085005 220.392362 
L 695.21608 226.910569 
L 695.969653 232.093266 
L 696.617433 237.943719 
L 697.065291 243.794171 
L 697.319603 249.644623 
L 697.383027 255.495075 
L 697.25612 261.345528 
L 696.937726 267.19598 
L 696.424192 273.046432 
L 695.707298 278.896884 
L 694.44952 286.697487 
L 693.287561 292.54794 
L 691.903888 298.398392 
L 689.737121 306.198995 
L 687.854275 312.049447 
L 685.002696 319.85005 
L 682.571149 325.700503 
L 679.905177 331.550955 
L 675.939415 339.351558 
L 671.662312 346.830456 
L 669.050995 351.052462 
L 665.132746 356.902915 
L 660.867204 362.753367 
L 655.959799 368.910692 
L 652.034171 373.47461 
L 647.528412 378.354573 
L 643.675181 382.254874 
L 639.57677 386.155176 
L 635.207642 390.055477 
L 630.536687 393.955779 
L 624.554774 398.578815 
L 620.114714 401.756382 
L 614.254687 405.656683 
L 608.852261 408.974519 
L 604.40594 411.507136 
L 596.939401 415.407437 
L 589.224121 418.990625 
L 583.761683 421.257889 
L 577.447236 423.643926 
L 569.59598 426.23337 
L 561.744724 428.433355 
L 553.893467 430.261263 
L 546.042211 431.727487 
L 538.190955 432.835929 
L 530.339698 433.606148 
L 522.488442 434.030254 
L 514.637186 434.114727 
L 506.78593 433.86098 
L 498.934673 433.264362 
L 498.934673 433.264362 
" style="fill:none;stroke:#d52221;stroke-width:1.5;"/>
   </g>
   <g id="LineCollection_7">
    <path clip-path="url(#p8290c368bd)" d="M 602.597846 448.56 
L 608.852261 445.707173 
L 616.703518 441.768299 
L 624.554774 437.415695 
L 631.857985 432.958794 
L 636.331658 430.028004 
L 644.182915 424.481482 
L 652.034171 418.374737 
L 660.047168 411.507136 
L 667.736683 404.213002 
L 673.809902 397.85608 
L 675.640932 395.90593 
L 683.439196 386.729911 
L 688.36562 380.304724 
L 692.545203 374.454271 
L 696.442557 368.603819 
L 700.076504 362.753367 
L 704.500922 354.952764 
L 707.577838 349.102312 
L 712.139098 339.351558 
L 715.405441 331.550955 
L 718.974614 321.800201 
L 721.963144 312.049447 
L 723.056523 308.149146 
L 724.901956 300.348543 
L 726.621106 292.165627 
L 727.783101 284.747337 
L 728.748285 276.946734 
L 729.445348 269.146131 
L 729.858194 261.345528 
L 729.972184 255.495075 
L 729.91511 249.644623 
L 729.688367 243.794171 
L 729.131247 235.993568 
L 728.298441 228.192965 
L 727.202707 220.392362 
L 726.153306 214.54191 
L 724.460732 206.741307 
L 722.539414 198.940704 
L 718.974614 187.239799 
L 718.28532 185.289648 
L 714.640732 175.538894 
L 710.394984 165.788141 
L 706.58772 157.987538 
L 702.349675 150.186935 
L 697.669541 142.386332 
L 693.867266 136.535879 
L 689.777897 130.685427 
L 686.916054 126.785126 
L 680.677969 118.984523 
L 679.04436 117.034372 
L 672.025592 109.233769 
L 670.118313 107.283618 
L 666.231972 103.383317 
L 662.134531 99.483015 
L 657.810898 95.582714 
L 653.246476 91.682412 
L 648.425316 87.782111 
L 645.853229 85.83196 
L 640.564462 81.931658 
L 636.331658 79.011996 
L 628.480402 73.96072 
L 620.629146 69.395202 
L 612.777889 65.251782 
L 604.926633 61.511519 
L 602.597846 60.48 
L 602.597846 60.48 
" style="fill:none;stroke:#aa1016;stroke-width:1.5;"/>
    <path clip-path="url(#p8290c368bd)" d="M 430.602154 60.48 
L 424.347739 63.332827 
L 416.496482 67.271701 
L 408.645226 71.624305 
L 401.342015 76.081206 
L 396.868342 79.011996 
L 389.017085 84.558518 
L 381.165829 90.665263 
L 373.152832 97.532864 
L 365.463317 104.826998 
L 359.390098 111.18392 
L 357.559068 113.13407 
L 349.760804 122.310089 
L 344.83438 128.735276 
L 340.654797 134.585729 
L 336.757443 140.436181 
L 333.123496 146.286633 
L 328.699078 154.087236 
L 325.622162 159.937688 
L 321.060902 169.688442 
L 317.794559 177.489045 
L 314.225386 187.239799 
L 311.236856 196.990553 
L 310.143477 200.890854 
L 308.298044 208.691457 
L 306.578894 216.874373 
L 305.416899 224.292663 
L 304.451715 232.093266 
L 303.754652 239.893869 
L 303.341806 247.694472 
L 303.227816 253.544925 
L 303.28489 259.395377 
L 303.511633 265.245829 
L 304.068753 273.046432 
L 304.901559 280.847035 
L 305.997293 288.647638 
L 307.046694 294.49809 
L 308.739268 302.298693 
L 310.660586 310.099296 
L 314.225386 321.800201 
L 314.91468 323.750352 
L 318.559268 333.501106 
L 322.805016 343.251859 
L 326.61228 351.052462 
L 330.850325 358.853065 
L 335.530459 366.653668 
L 339.332734 372.504121 
L 343.422103 378.354573 
L 346.283946 382.254874 
L 352.522031 390.055477 
L 354.15564 392.005628 
L 361.174408 399.806231 
L 363.081687 401.756382 
L 366.968028 405.656683 
L 371.065469 409.556985 
L 375.389102 413.457286 
L 379.953524 417.357588 
L 384.774684 421.257889 
L 387.346771 423.20804 
L 392.635538 427.108342 
L 396.868342 430.028004 
L 404.719598 435.07928 
L 412.570854 439.644798 
L 420.422111 443.788218 
L 428.273367 447.528481 
L 430.602154 448.56 
L 430.602154 448.56 
" style="fill:none;stroke:#aa1016;stroke-width:1.5;"/>
    <path clip-path="url(#p8290c368bd)" d="M 498.934673 437.148675 
L 491.083417 436.234733 
L 483.232161 434.962783 
L 475.380905 433.363094 
L 467.529648 431.395264 
L 459.678392 429.047104 
L 451.827136 426.337661 
L 443.975879 423.196242 
L 436.124623 419.650094 
L 431.532375 417.357588 
L 424.347739 413.444739 
L 417.855453 409.556985 
L 411.909639 405.656683 
L 406.411398 401.756382 
L 400.79397 397.424154 
L 396.585505 393.955779 
L 392.124705 390.055477 
L 387.946724 386.155176 
L 382.152242 380.304724 
L 376.84978 374.454271 
L 373.314573 370.244891 
L 370.42015 366.653668 
L 364.67726 358.853065 
L 361.537688 354.139232 
L 359.522356 351.052462 
L 354.9365 343.251859 
L 350.843611 335.451256 
L 347.201261 327.650653 
L 343.989601 319.85005 
L 341.909548 313.965082 
L 340.564023 310.099296 
L 338.823057 304.248844 
L 336.318995 294.49809 
L 335.123923 288.647638 
L 333.842224 280.847035 
L 333.044555 274.996583 
L 332.467746 269.146131 
L 332.091579 263.295678 
L 331.905678 257.445226 
L 331.905678 251.594774 
L 332.091579 245.744322 
L 332.467746 239.893869 
L 333.044555 234.043417 
L 333.842224 228.192965 
L 335.495898 218.442211 
L 336.774266 212.591759 
L 338.823057 204.791156 
L 340.564023 198.940704 
L 343.264435 191.140101 
L 344.759125 187.239799 
L 348.970022 177.489045 
L 353.902693 167.738291 
L 356.025875 163.83799 
L 360.769665 156.037387 
L 367.454701 146.286633 
L 371.944896 140.436181 
L 378.552168 132.635578 
L 384.020908 126.785126 
L 390.00832 120.934673 
L 394.30808 117.034372 
L 400.79397 111.615846 
L 404.719598 108.557544 
L 409.119928 105.333467 
L 414.813484 101.433166 
L 421.037941 97.532864 
L 428.273367 93.402789 
L 435.427596 89.732261 
L 440.050251 87.560029 
L 447.901508 84.220464 
L 455.752764 81.291529 
L 463.60402 78.762883 
L 471.455276 76.614315 
L 479.306533 74.825185 
L 487.157789 73.390149 
L 495.009045 72.313556 
L 502.860302 71.552394 
L 510.711558 71.135785 
L 518.562814 71.053309 
L 526.41407 71.301555 
L 534.265327 71.891325 
L 542.116583 72.805267 
L 549.967839 74.077217 
L 557.819095 75.676906 
L 565.670352 77.644736 
L 573.521608 79.992896 
L 581.372864 82.702339 
L 589.224121 85.843758 
L 597.075377 89.389906 
L 601.667625 91.682412 
L 608.852261 95.595261 
L 615.344547 99.483015 
L 621.290361 103.383317 
L 626.788602 107.283618 
L 632.40603 111.615846 
L 636.614495 115.084221 
L 641.075295 118.984523 
L 645.253276 122.884824 
L 651.047758 128.735276 
L 656.35022 134.585729 
L 659.885427 138.795109 
L 662.77985 142.386332 
L 668.52274 150.186935 
L 671.662312 154.900768 
L 673.677644 157.987538 
L 678.2635 165.788141 
L 682.356389 173.588744 
L 685.998739 181.389347 
L 689.210399 189.18995 
L 691.290452 195.074918 
L 692.635977 198.940704 
L 694.376943 204.791156 
L 696.881005 214.54191 
L 698.076077 220.392362 
L 699.357776 228.192965 
L 700.155445 234.043417 
L 700.732254 239.893869 
L 701.108421 245.744322 
L 701.294322 251.594774 
L 701.294322 257.445226 
L 701.108421 263.295678 
L 700.732254 269.146131 
L 700.155445 274.996583 
L 699.357776 280.847035 
L 697.704102 290.597789 
L 696.425734 296.448241 
L 694.376943 304.248844 
L 692.635977 310.099296 
L 689.935565 317.899899 
L 688.440875 321.800201 
L 684.229978 331.550955 
L 679.297307 341.301709 
L 677.174125 345.20201 
L 672.430335 353.002613 
L 665.745299 362.753367 
L 661.255104 368.603819 
L 654.647832 376.404422 
L 649.179092 382.254874 
L 643.19168 388.105327 
L 638.89192 392.005628 
L 632.40603 397.424154 
L 628.480402 400.482456 
L 624.080072 403.706533 
L 618.386516 407.606834 
L 612.162059 411.507136 
L 604.926633 415.637211 
L 597.772404 419.307739 
L 593.149749 421.479971 
L 585.298492 424.819536 
L 577.447236 427.748471 
L 569.59598 430.277117 
L 561.744724 432.425685 
L 553.893467 434.214815 
L 546.042211 435.649851 
L 538.190955 436.726444 
L 530.339698 437.487606 
L 522.488442 437.904215 
L 514.637186 437.986691 
L 506.78593 437.738445 
L 498.934673 437.148675 
L 498.934673 437.148675 
" style="fill:none;stroke:#aa1016;stroke-width:1.5;"/>
   </g>
   <g id="LineCollection_8">
    <path clip-path="url(#p8290c368bd)" d="M 590.610297 448.56 
L 597.075377 445.998636 
L 604.926633 442.573181 
L 612.777889 438.736344 
L 620.629146 434.456669 
L 628.480402 429.74087 
L 636.331658 424.543739 
L 644.182915 418.81534 
L 653.131931 411.507136 
L 657.524806 407.606834 
L 659.885427 405.51569 
L 661.690438 403.706533 
L 663.811055 401.748473 
L 665.640523 399.806231 
L 667.736683 397.763736 
L 671.2619 393.955779 
L 671.662312 393.547489 
L 674.692081 390.055477 
L 676.377293 388.105327 
L 683.439196 379.3608 
L 685.531276 376.404422 
L 687.364824 374.015186 
L 689.650758 370.55397 
L 691.290452 368.280741 
L 693.475549 364.703518 
L 695.931975 360.803216 
L 698.186316 356.902915 
L 699.362756 354.952764 
L 702.44634 349.102312 
L 703.469191 347.152161 
L 706.248153 341.301709 
L 707.204196 339.351558 
L 709.630452 333.501106 
L 711.285066 329.600804 
L 714.102609 321.800201 
L 714.85647 319.85005 
L 718.883124 306.198995 
L 721.429999 294.49809 
L 722.695477 288.266912 
L 723.683245 280.847035 
L 724.494556 273.046432 
L 725.049425 265.245829 
L 725.278544 259.395377 
L 725.336543 253.544925 
L 725.220839 247.694472 
L 724.806043 239.893869 
L 724.119043 232.093266 
L 723.190086 224.292663 
L 722.622052 220.392362 
L 720.188108 208.691457 
L 718.769849 202.362716 
L 715.430506 191.140101 
L 714.844221 189.149996 
L 712.666599 183.339497 
L 710.49758 177.489045 
L 707.995524 171.638593 
L 706.992965 169.180317 
L 705.284237 165.788141 
L 702.44634 159.937688 
L 700.349303 156.037387 
L 699.141709 153.659462 
L 697.030134 150.186935 
L 694.764276 146.286633 
L 692.268421 142.386332 
L 691.054351 140.436181 
L 688.346216 136.535879 
L 687.021918 134.585729 
L 684.146044 130.685427 
L 682.655447 128.735276 
L 675.58794 119.948007 
L 672.962697 117.034372 
L 671.2619 115.084221 
L 663.80248 107.283618 
L 652.034171 96.555226 
L 640.909527 87.782111 
L 638.172118 85.83196 
L 635.412294 83.881809 
L 632.40603 81.812835 
L 624.554774 76.888192 
L 616.314062 72.180905 
L 608.747994 68.280603 
L 601.001005 64.706138 
L 595.587774 62.430151 
L 590.610297 60.48 
L 590.610297 60.48 
" style="fill:none;stroke:#67000d;stroke-width:1.5;"/>
    <path clip-path="url(#p8290c368bd)" d="M 442.589703 60.48 
L 436.124623 63.041364 
L 428.273367 66.466819 
L 420.422111 70.303656 
L 412.570854 74.583331 
L 404.719598 79.29913 
L 396.868342 84.496261 
L 389.017085 90.22466 
L 380.068069 97.532864 
L 375.675194 101.433166 
L 373.314573 103.52431 
L 371.509562 105.333467 
L 369.388945 107.291527 
L 367.559477 109.233769 
L 365.463317 111.276264 
L 361.9381 115.084221 
L 361.537688 115.492511 
L 358.507919 118.984523 
L 356.822707 120.934673 
L 349.760804 129.6792 
L 347.668724 132.635578 
L 345.835176 135.024814 
L 343.549242 138.48603 
L 341.909548 140.759259 
L 339.724451 144.336482 
L 337.268025 148.236784 
L 335.013684 152.137085 
L 333.837244 154.087236 
L 330.75366 159.937688 
L 329.730809 161.887839 
L 326.951847 167.738291 
L 325.995804 169.688442 
L 323.569548 175.538894 
L 321.914934 179.439196 
L 319.097391 187.239799 
L 318.34353 189.18995 
L 314.316876 202.841005 
L 311.770001 214.54191 
L 310.504523 220.773088 
L 309.516755 228.192965 
L 308.705444 235.993568 
L 308.150575 243.794171 
L 307.921456 249.644623 
L 307.863457 255.495075 
L 307.979161 261.345528 
L 308.393957 269.146131 
L 309.080957 276.946734 
L 310.009914 284.747337 
L 310.577948 288.647638 
L 313.011892 300.348543 
L 314.430151 306.677284 
L 317.769494 317.899899 
L 318.355779 319.890004 
L 320.533401 325.700503 
L 322.70242 331.550955 
L 325.204476 337.401407 
L 326.207035 339.859683 
L 327.915763 343.251859 
L 330.75366 349.102312 
L 332.850697 353.002613 
L 334.058291 355.380538 
L 336.169866 358.853065 
L 338.435724 362.753367 
L 340.931579 366.653668 
L 342.145649 368.603819 
L 344.853784 372.504121 
L 346.178082 374.454271 
L 349.053956 378.354573 
L 350.544553 380.304724 
L 357.61206 389.091993 
L 360.237303 392.005628 
L 361.9381 393.955779 
L 369.39752 401.756382 
L 381.165829 412.484774 
L 392.290473 421.257889 
L 395.027882 423.20804 
L 397.787706 425.158191 
L 400.79397 427.227165 
L 408.645226 432.151808 
L 416.885938 436.859095 
L 424.452006 440.759397 
L 432.198995 444.333862 
L 437.612226 446.609849 
L 442.589703 448.56 
L 442.589703 448.56 
" style="fill:none;stroke:#67000d;stroke-width:1.5;"/>
    <path clip-path="url(#p8290c368bd)" d="M 491.083417 440.770962 
L 483.232161 439.576219 
L 475.380905 438.006806 
L 467.529648 436.088631 
L 459.678392 433.812952 
L 451.490254 431.008643 
L 446.34334 429.058492 
L 441.616079 427.108342 
L 436.124623 424.658744 
L 428.273367 420.768049 
L 422.041425 417.357588 
L 415.543599 413.457286 
L 406.746047 407.606834 
L 398.910303 401.756382 
L 391.857932 395.90593 
L 385.484465 390.055477 
L 377.763203 382.254874 
L 370.82727 374.454271 
L 369.313792 372.504121 
L 367.647792 370.55397 
L 361.887615 362.753367 
L 361.537688 362.222308 
L 360.458173 360.803216 
L 357.908056 356.902915 
L 357.61206 356.413362 
L 355.336889 353.002613 
L 348.671186 341.301709 
L 346.709544 337.401407 
L 345.835176 335.429241 
L 343.891388 331.550955 
L 339.807657 321.800201 
L 336.348482 312.049447 
L 335.164379 308.149146 
L 332.031556 296.448241 
L 330.847736 290.597789 
L 328.873378 278.896884 
L 328.181632 273.046432 
L 327.70337 267.19598 
L 327.413243 261.345528 
L 327.298871 255.495075 
L 327.355942 249.644623 
L 327.58657 243.794171 
L 328.000094 237.943719 
L 328.616711 232.093266 
L 329.475915 226.242814 
L 332.031556 212.591759 
L 333.000073 208.691457 
L 336.348482 196.990553 
L 339.807657 187.239799 
L 341.438776 183.339497 
L 342.275537 181.389347 
L 343.891388 177.489045 
L 347.643601 169.688442 
L 351.850954 161.887839 
L 356.580296 154.087236 
L 357.908056 152.137085 
L 360.458173 148.236784 
L 361.887615 146.286633 
L 363.210039 144.336482 
L 367.647792 138.48603 
L 369.388945 136.450981 
L 370.82727 134.585729 
L 375.916862 128.735276 
L 377.763203 126.785126 
L 379.550615 124.834975 
L 389.679728 115.084221 
L 394.138581 111.18392 
L 401.467904 105.333467 
L 406.746047 101.433166 
L 412.570854 97.519358 
L 418.709826 93.632563 
L 425.541892 89.732261 
L 432.198995 86.272062 
L 437.223986 83.881809 
L 443.975879 80.919461 
L 451.827136 77.903535 
L 459.678392 75.227048 
L 467.529648 72.951369 
L 475.380905 71.033194 
L 483.232161 69.463781 
L 491.083417 68.269038 
L 498.934673 67.336507 
L 506.78593 66.779942 
L 514.637186 66.548444 
L 522.488442 66.625184 
L 530.339698 67.015479 
L 538.190955 67.750494 
L 546.042211 68.814104 
L 549.967839 69.463781 
L 557.819095 71.033194 
L 565.670352 72.951369 
L 573.521608 75.227048 
L 581.709746 78.031357 
L 586.85666 79.981508 
L 591.583921 81.931658 
L 597.075377 84.381256 
L 604.926633 88.271951 
L 611.158575 91.682412 
L 617.656401 95.582714 
L 626.453953 101.433166 
L 634.289697 107.283618 
L 641.342068 113.13407 
L 647.715535 118.984523 
L 655.436797 126.785126 
L 662.37273 134.585729 
L 663.886208 136.535879 
L 665.552208 138.48603 
L 671.312385 146.286633 
L 671.662312 146.817692 
L 672.741827 148.236784 
L 675.291944 152.137085 
L 675.58794 152.626638 
L 677.863111 156.037387 
L 684.528814 167.738291 
L 686.490456 171.638593 
L 687.364824 173.610759 
L 689.308612 177.489045 
L 693.392343 187.239799 
L 696.851518 196.990553 
L 698.035621 200.890854 
L 701.168444 212.591759 
L 702.352264 218.442211 
L 704.326622 230.143116 
L 705.018368 235.993568 
L 705.49663 241.84402 
L 705.786757 247.694472 
L 705.901129 253.544925 
L 705.844058 259.395377 
L 705.61343 265.245829 
L 705.199906 271.096281 
L 704.583289 276.946734 
L 703.724085 282.797186 
L 701.168444 296.448241 
L 700.199927 300.348543 
L 696.851518 312.049447 
L 693.392343 321.800201 
L 691.761224 325.700503 
L 690.924463 327.650653 
L 689.308612 331.550955 
L 685.556399 339.351558 
L 681.349046 347.152161 
L 676.619704 354.952764 
L 675.291944 356.902915 
L 672.741827 360.803216 
L 671.312385 362.753367 
L 669.989961 364.703518 
L 665.552208 370.55397 
L 663.811055 372.589019 
L 662.37273 374.454271 
L 657.283138 380.304724 
L 655.436797 382.254874 
L 653.649385 384.205025 
L 643.520272 393.955779 
L 639.061419 397.85608 
L 631.732096 403.706533 
L 626.453953 407.606834 
L 620.629146 411.520642 
L 614.490174 415.407437 
L 607.658108 419.307739 
L 601.001005 422.767938 
L 595.976014 425.158191 
L 589.224121 428.120539 
L 581.372864 431.136465 
L 573.521608 433.812952 
L 565.670352 436.088631 
L 557.819095 438.006806 
L 549.967839 439.576219 
L 542.116583 440.770962 
L 534.265327 441.703493 
L 526.41407 442.260058 
L 518.562814 442.491556 
L 510.711558 442.414816 
L 502.860302 442.024521 
L 495.009045 441.289506 
L 491.083417 440.770962 
L 491.083417 440.770962 
" style="fill:none;stroke:#67000d;stroke-width:1.5;"/>
   </g>
   <g id="line2d_37">
    <defs>
     <path d="M 0 4 
C 1.060812 4 2.078319 3.578535 2.828427 2.828427 
C 3.578535 2.078319 4 1.060812 4 0 
C 4 -1.060812 3.578535 -2.078319 2.828427 -2.828427 
C 2.078319 -3.578535 1.060812 -4 0 -4 
C -1.060812 -4 -2.078319 -3.578535 -2.828427 -2.828427 
C -3.578535 -2.078319 -4 -1.060812 -4 0 
C -4 1.060812 -3.578535 2.078319 -2.828427 2.828427 
C -2.078319 3.578535 -1.060812 4 0 4 
z
" id="mafdbcb2e87" style="stroke:#c1161b;"/>
    </defs>
    <g clip-path="url(#p8290c368bd)">
     <use style="fill:#c1161b;stroke:#c1161b;" x="320.014055" xlink:href="#mafdbcb2e87" y="261.639101"/>
     <use style="fill:#c1161b;stroke:#c1161b;" x="522.513628" xlink:href="#mafdbcb2e87" y="429.868085"/>
     <use style="fill:#c1161b;stroke:#c1161b;" x="374.89218" xlink:href="#mafdbcb2e87" y="349.829301"/>
     <use style="fill:#c1161b;stroke:#c1161b;" x="358.397012" xlink:href="#mafdbcb2e87" y="382.833393"/>
     <use style="fill:#c1161b;stroke:#c1161b;" x="330.116369" xlink:href="#mafdbcb2e87" y="357.061032"/>
     <use style="fill:#c1161b;stroke:#c1161b;" x="332.610527" xlink:href="#mafdbcb2e87" y="177.357051"/>
     <use style="fill:#c1161b;stroke:#c1161b;" x="397.557109" xlink:href="#mafdbcb2e87" y="129.720038"/>
     <use style="fill:#c1161b;stroke:#c1161b;" x="689.039181" xlink:href="#mafdbcb2e87" y="168.367355"/>
     <use style="fill:#c1161b;stroke:#c1161b;" x="539.969459" xlink:href="#mafdbcb2e87" y="470.024268"/>
     <use style="fill:#c1161b;stroke:#c1161b;" x="339.848508" xlink:href="#mafdbcb2e87" y="348.021892"/>
     <use style="fill:#c1161b;stroke:#c1161b;" x="625.444469" xlink:href="#mafdbcb2e87" y="77.212757"/>
     <use style="fill:#c1161b;stroke:#c1161b;" x="647.048766" xlink:href="#mafdbcb2e87" y="93.65421"/>
     <use style="fill:#c1161b;stroke:#c1161b;" x="387.066513" xlink:href="#mafdbcb2e87" y="385.806851"/>
     <use style="fill:#c1161b;stroke:#c1161b;" x="433.033441" xlink:href="#mafdbcb2e87" y="87.114896"/>
     <use style="fill:#c1161b;stroke:#c1161b;" x="703.574226" xlink:href="#mafdbcb2e87" y="319.346003"/>
     <use style="fill:#c1161b;stroke:#c1161b;" x="403.123712" xlink:href="#mafdbcb2e87" y="435.673788"/>
     <use style="fill:#c1161b;stroke:#c1161b;" x="544.282801" xlink:href="#mafdbcb2e87" y="471.363476"/>
     <use style="fill:#c1161b;stroke:#c1161b;" x="321.808575" xlink:href="#mafdbcb2e87" y="277.939735"/>
     <use style="fill:#c1161b;stroke:#c1161b;" x="406.179182" xlink:href="#mafdbcb2e87" y="449.87382"/>
     <use style="fill:#c1161b;stroke:#c1161b;" x="723.01318" xlink:href="#mafdbcb2e87" y="246.277864"/>
     <use style="fill:#c1161b;stroke:#c1161b;" x="463.322399" xlink:href="#mafdbcb2e87" y="89.089568"/>
     <use style="fill:#c1161b;stroke:#c1161b;" x="346.727215" xlink:href="#mafdbcb2e87" y="231.086964"/>
     <use style="fill:#c1161b;stroke:#c1161b;" x="378.386526" xlink:href="#mafdbcb2e87" y="355.771589"/>
     <use style="fill:#c1161b;stroke:#c1161b;" x="533.998189" xlink:href="#mafdbcb2e87" y="432.148547"/>
     <use style="fill:#c1161b;stroke:#c1161b;" x="617.188836" xlink:href="#mafdbcb2e87" y="446.263729"/>
     <use style="fill:#c1161b;stroke:#c1161b;" x="326.548228" xlink:href="#mafdbcb2e87" y="293.530988"/>
     <use style="fill:#c1161b;stroke:#c1161b;" x="395.769375" xlink:href="#mafdbcb2e87" y="94.827059"/>
     <use style="fill:#c1161b;stroke:#c1161b;" x="425.436082" xlink:href="#mafdbcb2e87" y="97.193902"/>
     <use style="fill:#c1161b;stroke:#c1161b;" x="538.107124" xlink:href="#mafdbcb2e87" y="444.827873"/>
     <use style="fill:#c1161b;stroke:#c1161b;" x="551.143208" xlink:href="#mafdbcb2e87" y="87.505879"/>
     <use style="fill:#c1161b;stroke:#c1161b;" x="711.893386" xlink:href="#mafdbcb2e87" y="290.73163"/>
     <use style="fill:#c1161b;stroke:#c1161b;" x="618.981232" xlink:href="#mafdbcb2e87" y="407.891831"/>
     <use style="fill:#c1161b;stroke:#c1161b;" x="405.822787" xlink:href="#mafdbcb2e87" y="100.640666"/>
     <use style="fill:#c1161b;stroke:#c1161b;" x="524.144596" xlink:href="#mafdbcb2e87" y="439.735394"/>
     <use style="fill:#c1161b;stroke:#c1161b;" x="414.828586" xlink:href="#mafdbcb2e87" y="429.064949"/>
     <use style="fill:#c1161b;stroke:#c1161b;" x="643.206934" xlink:href="#mafdbcb2e87" y="96.129462"/>
     <use style="fill:#c1161b;stroke:#c1161b;" x="609.799488" xlink:href="#mafdbcb2e87" y="88.346756"/>
     <use style="fill:#c1161b;stroke:#c1161b;" x="673.796784" xlink:href="#mafdbcb2e87" y="199.033089"/>
     <use style="fill:#c1161b;stroke:#c1161b;" x="363.160411" xlink:href="#mafdbcb2e87" y="368.816282"/>
     <use style="fill:#c1161b;stroke:#c1161b;" x="348.721763" xlink:href="#mafdbcb2e87" y="336.953337"/>
     <use style="fill:#c1161b;stroke:#c1161b;" x="704.63538" xlink:href="#mafdbcb2e87" y="212.20089"/>
     <use style="fill:#c1161b;stroke:#c1161b;" x="757.621371" xlink:href="#mafdbcb2e87" y="241.026995"/>
     <use style="fill:#c1161b;stroke:#c1161b;" x="698.080706" xlink:href="#mafdbcb2e87" y="365.090947"/>
     <use style="fill:#c1161b;stroke:#c1161b;" x="403.891494" xlink:href="#mafdbcb2e87" y="407.180387"/>
     <use style="fill:#c1161b;stroke:#c1161b;" x="376.3809" xlink:href="#mafdbcb2e87" y="130.687067"/>
     <use style="fill:#c1161b;stroke:#c1161b;" x="336.851726" xlink:href="#mafdbcb2e87" y="275.776539"/>
     <use style="fill:#c1161b;stroke:#c1161b;" x="332.760128" xlink:href="#mafdbcb2e87" y="322.731289"/>
     <use style="fill:#c1161b;stroke:#c1161b;" x="474.414441" xlink:href="#mafdbcb2e87" y="67.346995"/>
     <use style="fill:#c1161b;stroke:#c1161b;" x="335.461806" xlink:href="#mafdbcb2e87" y="285.667433"/>
     <use style="fill:#c1161b;stroke:#c1161b;" x="690.636201" xlink:href="#mafdbcb2e87" y="178.32065"/>
     <use style="fill:#c1161b;stroke:#c1161b;" x="681.908269" xlink:href="#mafdbcb2e87" y="217.529988"/>
     <use style="fill:#c1161b;stroke:#c1161b;" x="361.461014" xlink:href="#mafdbcb2e87" y="365.092632"/>
     <use style="fill:#c1161b;stroke:#c1161b;" x="707.292539" xlink:href="#mafdbcb2e87" y="227.082234"/>
     <use style="fill:#c1161b;stroke:#c1161b;" x="366.767027" xlink:href="#mafdbcb2e87" y="365.80698"/>
     <use style="fill:#c1161b;stroke:#c1161b;" x="381.215992" xlink:href="#mafdbcb2e87" y="107.109249"/>
     <use style="fill:#c1161b;stroke:#c1161b;" x="671.738358" xlink:href="#mafdbcb2e87" y="129.180708"/>
     <use style="fill:#c1161b;stroke:#c1161b;" x="433.524586" xlink:href="#mafdbcb2e87" y="415.654178"/>
     <use style="fill:#c1161b;stroke:#c1161b;" x="562.49215" xlink:href="#mafdbcb2e87" y="461.631179"/>
     <use style="fill:#c1161b;stroke:#c1161b;" x="643.093682" xlink:href="#mafdbcb2e87" y="416.830931"/>
     <use style="fill:#c1161b;stroke:#c1161b;" x="373.789077" xlink:href="#mafdbcb2e87" y="400.018884"/>
     <use style="fill:#c1161b;stroke:#c1161b;" x="526.589365" xlink:href="#mafdbcb2e87" y="449.982969"/>
     <use style="fill:#c1161b;stroke:#c1161b;" x="345.674236" xlink:href="#mafdbcb2e87" y="232.42971"/>
     <use style="fill:#c1161b;stroke:#c1161b;" x="330.503729" xlink:href="#mafdbcb2e87" y="320.82194"/>
     <use style="fill:#c1161b;stroke:#c1161b;" x="653.94171" xlink:href="#mafdbcb2e87" y="109.16237"/>
     <use style="fill:#c1161b;stroke:#c1161b;" x="381.438848" xlink:href="#mafdbcb2e87" y="425.446088"/>
     <use style="fill:#c1161b;stroke:#c1161b;" x="473.921601" xlink:href="#mafdbcb2e87" y="58.963149"/>
     <use style="fill:#c1161b;stroke:#c1161b;" x="343.590312" xlink:href="#mafdbcb2e87" y="323.065386"/>
     <use style="fill:#c1161b;stroke:#c1161b;" x="318.84851" xlink:href="#mafdbcb2e87" y="316.193029"/>
     <use style="fill:#c1161b;stroke:#c1161b;" x="404.89368" xlink:href="#mafdbcb2e87" y="427.9204"/>
     <use style="fill:#c1161b;stroke:#c1161b;" x="578.205389" xlink:href="#mafdbcb2e87" y="474.340016"/>
     <use style="fill:#c1161b;stroke:#c1161b;" x="423.574929" xlink:href="#mafdbcb2e87" y="106.762997"/>
     <use style="fill:#c1161b;stroke:#c1161b;" x="677.290255" xlink:href="#mafdbcb2e87" y="153.466009"/>
     <use style="fill:#c1161b;stroke:#c1161b;" x="469.069594" xlink:href="#mafdbcb2e87" y="432.598003"/>
     <use style="fill:#c1161b;stroke:#c1161b;" x="496.365959" xlink:href="#mafdbcb2e87" y="82.436803"/>
     <use style="fill:#c1161b;stroke:#c1161b;" x="657.001596" xlink:href="#mafdbcb2e87" y="398.35227"/>
    </g>
   </g>
   <g id="patch_3">
    <path d="M 126 448.56 
L 126 60.48 
" style="fill:none;stroke:#000000;stroke-linecap:square;stroke-linejoin:miter;stroke-width:0.8;"/>
   </g>
   <g id="patch_4">
    <path d="M 907.2 448.56 
L 907.2 60.48 
" style="fill:none;stroke:#000000;stroke-linecap:square;stroke-linejoin:miter;stroke-width:0.8;"/>
   </g>
   <g id="patch_5">
    <path d="M 126 448.56 
L 907.2 448.56 
" style="fill:none;stroke:#000000;stroke-linecap:square;stroke-linejoin:miter;stroke-width:0.8;"/>
   </g>
   <g id="patch_6">
    <path d="M 126 60.48 
L 907.2 60.48 
" style="fill:none;stroke:#000000;stroke-linecap:square;stroke-linejoin:miter;stroke-width:0.8;"/>
   </g>
  </g>
 </g>
 <defs>
  <clipPath id="p8290c368bd">
   <rect height="388.08" width="781.2" x="126" y="60.48"/>
  </clipPath>
 </defs>
</svg>
