<?xml version="1.0" encoding="utf-8" standalone="no"?>
<!DOCTYPE svg PUBLIC "-//W3C//DTD SVG 1.1//EN"
  "http://www.w3.org/Graphics/SVG/1.1/DTD/svg11.dtd">
<!-- Created with matplotlib (http://matplotlib.org/) -->
<svg height="504pt" version="1.1" viewBox="0 0 1008 504" width="1008pt" xmlns="http://www.w3.org/2000/svg" xmlns:xlink="http://www.w3.org/1999/xlink">
 <defs>
  <style type="text/css">
*{stroke-linecap:butt;stroke-linejoin:round;}
  </style>
 </defs>
 <g id="figure_1">
  <g id="patch_1">
   <path d="M 0 504 
L 1008 504 
L 1008 0 
L 0 0 
z
" style="fill:#ffffff;"/>
  </g>
  <g id="axes_1">
   <g id="patch_2">
    <path d="M 126 448.56 
L 907.2 448.56 
L 907.2 60.48 
L 126 60.48 
z
" style="fill:#ffffff;"/>
   </g>
   <g id="patch_3">
    <path clip-path="url(#p2ec013457f)" d="M 715.632896 254.52 
L 705.867896 259.371 
L 705.867896 254.524851 
L 516.6 254.524851 
L 516.6 254.515149 
L 705.867896 254.515149 
L 705.867896 249.669 
z
" style="fill:#c1161b;stroke:#c1161b;stroke-linejoin:miter;stroke-width:3;"/>
   </g>
   <g id="matplotlib.axis_1">
    <g id="xtick_1">
     <g id="line2d_1">
      <path clip-path="url(#p2ec013457f)" d="M 126 448.56 
L 126 60.48 
" style="fill:none;stroke:#b0b0b0;stroke-linecap:square;stroke-width:0.8;"/>
     </g>
     <g id="line2d_2">
      <defs>
       <path d="M 0 0 
L 0 3.5 
" id="m5243b44a7e" style="stroke:#000000;stroke-width:0.8;"/>
      </defs>
      <g>
       <use style="stroke:#000000;stroke-width:0.8;" x="126" xlink:href="#m5243b44a7e" y="448.56"/>
      </g>
     </g>
     <g id="text_1">
      <!-- −40 -->
      <defs>
       <path d="M 10.59375 35.5 
L 73.1875 35.5 
L 73.1875 27.203125 
L 10.59375 27.203125 
z
" id="DejaVuSans-2212"/>
       <path d="M 37.796875 64.3125 
L 12.890625 25.390625 
L 37.796875 25.390625 
z
M 35.203125 72.90625 
L 47.609375 72.90625 
L 47.609375 25.390625 
L 58.015625 25.390625 
L 58.015625 17.1875 
L 47.609375 17.1875 
L 47.609375 0 
L 37.796875 0 
L 37.796875 17.1875 
L 4.890625 17.1875 
L 4.890625 26.703125 
z
" id="DejaVuSans-34"/>
       <path d="M 31.78125 66.40625 
Q 24.171875 66.40625 20.328125 58.90625 
Q 16.5 51.421875 16.5 36.375 
Q 16.5 21.390625 20.328125 13.890625 
Q 24.171875 6.390625 31.78125 6.390625 
Q 39.453125 6.390625 43.28125 13.890625 
Q 47.125 21.390625 47.125 36.375 
Q 47.125 51.421875 43.28125 58.90625 
Q 39.453125 66.40625 31.78125 66.40625 
z
M 31.78125 74.21875 
Q 44.046875 74.21875 50.515625 64.515625 
Q 56.984375 54.828125 56.984375 36.375 
Q 56.984375 17.96875 50.515625 8.265625 
Q 44.046875 -1.421875 31.78125 -1.421875 
Q 19.53125 -1.421875 13.0625 8.265625 
Q 6.59375 17.96875 6.59375 36.375 
Q 6.59375 54.828125 13.0625 64.515625 
Q 19.53125 74.21875 31.78125 74.21875 
z
" id="DejaVuSans-30"/>
      </defs>
      <g transform="translate(115.447656 463.158437)scale(0.1 -0.1)">
       <use xlink:href="#DejaVuSans-2212"/>
       <use x="83.789062" xlink:href="#DejaVuSans-34"/>
       <use x="147.412109" xlink:href="#DejaVuSans-30"/>
      </g>
     </g>
    </g>
    <g id="xtick_2">
     <g id="line2d_3">
      <path clip-path="url(#p2ec013457f)" d="M 223.65 448.56 
L 223.65 60.48 
" style="fill:none;stroke:#b0b0b0;stroke-linecap:square;stroke-width:0.8;"/>
     </g>
     <g id="line2d_4">
      <g>
       <use style="stroke:#000000;stroke-width:0.8;" x="223.65" xlink:href="#m5243b44a7e" y="448.56"/>
      </g>
     </g>
     <g id="text_2">
      <!-- −30 -->
      <defs>
       <path d="M 40.578125 39.3125 
Q 47.65625 37.796875 51.625 33 
Q 55.609375 28.21875 55.609375 21.1875 
Q 55.609375 10.40625 48.1875 4.484375 
Q 40.765625 -1.421875 27.09375 -1.421875 
Q 22.515625 -1.421875 17.65625 -0.515625 
Q 12.796875 0.390625 7.625 2.203125 
L 7.625 11.71875 
Q 11.71875 9.328125 16.59375 8.109375 
Q 21.484375 6.890625 26.8125 6.890625 
Q 36.078125 6.890625 40.9375 10.546875 
Q 45.796875 14.203125 45.796875 21.1875 
Q 45.796875 27.640625 41.28125 31.265625 
Q 36.765625 34.90625 28.71875 34.90625 
L 20.21875 34.90625 
L 20.21875 43.015625 
L 29.109375 43.015625 
Q 36.375 43.015625 40.234375 45.921875 
Q 44.09375 48.828125 44.09375 54.296875 
Q 44.09375 59.90625 40.109375 62.90625 
Q 36.140625 65.921875 28.71875 65.921875 
Q 24.65625 65.921875 20.015625 65.03125 
Q 15.375 64.15625 9.8125 62.3125 
L 9.8125 71.09375 
Q 15.4375 72.65625 20.34375 73.4375 
Q 25.25 74.21875 29.59375 74.21875 
Q 40.828125 74.21875 47.359375 69.109375 
Q 53.90625 64.015625 53.90625 55.328125 
Q 53.90625 49.265625 50.4375 45.09375 
Q 46.96875 40.921875 40.578125 39.3125 
z
" id="DejaVuSans-33"/>
      </defs>
      <g transform="translate(213.097656 463.158437)scale(0.1 -0.1)">
       <use xlink:href="#DejaVuSans-2212"/>
       <use x="83.789062" xlink:href="#DejaVuSans-33"/>
       <use x="147.412109" xlink:href="#DejaVuSans-30"/>
      </g>
     </g>
    </g>
    <g id="xtick_3">
     <g id="line2d_5">
      <path clip-path="url(#p2ec013457f)" d="M 321.3 448.56 
L 321.3 60.48 
" style="fill:none;stroke:#b0b0b0;stroke-linecap:square;stroke-width:0.8;"/>
     </g>
     <g id="line2d_6">
      <g>
       <use style="stroke:#000000;stroke-width:0.8;" x="321.3" xlink:href="#m5243b44a7e" y="448.56"/>
      </g>
     </g>
     <g id="text_3">
      <!-- −20 -->
      <defs>
       <path d="M 19.1875 8.296875 
L 53.609375 8.296875 
L 53.609375 0 
L 7.328125 0 
L 7.328125 8.296875 
Q 12.9375 14.109375 22.625 23.890625 
Q 32.328125 33.6875 34.8125 36.53125 
Q 39.546875 41.84375 41.421875 45.53125 
Q 43.3125 49.21875 43.3125 52.78125 
Q 43.3125 58.59375 39.234375 62.25 
Q 35.15625 65.921875 28.609375 65.921875 
Q 23.96875 65.921875 18.8125 64.3125 
Q 13.671875 62.703125 7.8125 59.421875 
L 7.8125 69.390625 
Q 13.765625 71.78125 18.9375 73 
Q 24.125 74.21875 28.421875 74.21875 
Q 39.75 74.21875 46.484375 68.546875 
Q 53.21875 62.890625 53.21875 53.421875 
Q 53.21875 48.921875 51.53125 44.890625 
Q 49.859375 40.875 45.40625 35.40625 
Q 44.1875 33.984375 37.640625 27.21875 
Q 31.109375 20.453125 19.1875 8.296875 
z
" id="DejaVuSans-32"/>
      </defs>
      <g transform="translate(310.747656 463.158437)scale(0.1 -0.1)">
       <use xlink:href="#DejaVuSans-2212"/>
       <use x="83.789062" xlink:href="#DejaVuSans-32"/>
       <use x="147.412109" xlink:href="#DejaVuSans-30"/>
      </g>
     </g>
    </g>
    <g id="xtick_4">
     <g id="line2d_7">
      <path clip-path="url(#p2ec013457f)" d="M 418.95 448.56 
L 418.95 60.48 
" style="fill:none;stroke:#b0b0b0;stroke-linecap:square;stroke-width:0.8;"/>
     </g>
     <g id="line2d_8">
      <g>
       <use style="stroke:#000000;stroke-width:0.8;" x="418.95" xlink:href="#m5243b44a7e" y="448.56"/>
      </g>
     </g>
     <g id="text_4">
      <!-- −10 -->
      <defs>
       <path d="M 12.40625 8.296875 
L 28.515625 8.296875 
L 28.515625 63.921875 
L 10.984375 60.40625 
L 10.984375 69.390625 
L 28.421875 72.90625 
L 38.28125 72.90625 
L 38.28125 8.296875 
L 54.390625 8.296875 
L 54.390625 0 
L 12.40625 0 
z
" id="DejaVuSans-31"/>
      </defs>
      <g transform="translate(408.397656 463.158437)scale(0.1 -0.1)">
       <use xlink:href="#DejaVuSans-2212"/>
       <use x="83.789062" xlink:href="#DejaVuSans-31"/>
       <use x="147.412109" xlink:href="#DejaVuSans-30"/>
      </g>
     </g>
    </g>
    <g id="xtick_5">
     <g id="line2d_9">
      <path clip-path="url(#p2ec013457f)" d="M 516.6 448.56 
L 516.6 60.48 
" style="fill:none;stroke:#b0b0b0;stroke-linecap:square;stroke-width:0.8;"/>
     </g>
     <g id="line2d_10">
      <g>
       <use style="stroke:#000000;stroke-width:0.8;" x="516.6" xlink:href="#m5243b44a7e" y="448.56"/>
      </g>
     </g>
     <g id="text_5">
      <!-- 0 -->
      <g transform="translate(513.41875 463.158437)scale(0.1 -0.1)">
       <use xlink:href="#DejaVuSans-30"/>
      </g>
     </g>
    </g>
    <g id="xtick_6">
     <g id="line2d_11">
      <path clip-path="url(#p2ec013457f)" d="M 614.25 448.56 
L 614.25 60.48 
" style="fill:none;stroke:#b0b0b0;stroke-linecap:square;stroke-width:0.8;"/>
     </g>
     <g id="line2d_12">
      <g>
       <use style="stroke:#000000;stroke-width:0.8;" x="614.25" xlink:href="#m5243b44a7e" y="448.56"/>
      </g>
     </g>
     <g id="text_6">
      <!-- 10 -->
      <g transform="translate(607.8875 463.158437)scale(0.1 -0.1)">
       <use xlink:href="#DejaVuSans-31"/>
       <use x="63.623047" xlink:href="#DejaVuSans-30"/>
      </g>
     </g>
    </g>
    <g id="xtick_7">
     <g id="line2d_13">
      <path clip-path="url(#p2ec013457f)" d="M 711.9 448.56 
L 711.9 60.48 
" style="fill:none;stroke:#b0b0b0;stroke-linecap:square;stroke-width:0.8;"/>
     </g>
     <g id="line2d_14">
      <g>
       <use style="stroke:#000000;stroke-width:0.8;" x="711.9" xlink:href="#m5243b44a7e" y="448.56"/>
      </g>
     </g>
     <g id="text_7">
      <!-- 20 -->
      <g transform="translate(705.5375 463.158437)scale(0.1 -0.1)">
       <use xlink:href="#DejaVuSans-32"/>
       <use x="63.623047" xlink:href="#DejaVuSans-30"/>
      </g>
     </g>
    </g>
    <g id="xtick_8">
     <g id="line2d_15">
      <path clip-path="url(#p2ec013457f)" d="M 809.55 448.56 
L 809.55 60.48 
" style="fill:none;stroke:#b0b0b0;stroke-linecap:square;stroke-width:0.8;"/>
     </g>
     <g id="line2d_16">
      <g>
       <use style="stroke:#000000;stroke-width:0.8;" x="809.55" xlink:href="#m5243b44a7e" y="448.56"/>
      </g>
     </g>
     <g id="text_8">
      <!-- 30 -->
      <g transform="translate(803.1875 463.158437)scale(0.1 -0.1)">
       <use xlink:href="#DejaVuSans-33"/>
       <use x="63.623047" xlink:href="#DejaVuSans-30"/>
      </g>
     </g>
    </g>
    <g id="xtick_9">
     <g id="line2d_17">
      <path clip-path="url(#p2ec013457f)" d="M 907.2 448.56 
L 907.2 60.48 
" style="fill:none;stroke:#b0b0b0;stroke-linecap:square;stroke-width:0.8;"/>
     </g>
     <g id="line2d_18">
      <g>
       <use style="stroke:#000000;stroke-width:0.8;" x="907.2" xlink:href="#m5243b44a7e" y="448.56"/>
      </g>
     </g>
     <g id="text_9">
      <!-- 40 -->
      <g transform="translate(900.8375 463.158437)scale(0.1 -0.1)">
       <use xlink:href="#DejaVuSans-34"/>
       <use x="63.623047" xlink:href="#DejaVuSans-30"/>
      </g>
     </g>
    </g>
    <g id="text_10">
     <!-- Real part -->
     <defs>
      <path d="M 44.390625 34.1875 
Q 47.5625 33.109375 50.5625 29.59375 
Q 53.5625 26.078125 56.59375 19.921875 
L 66.609375 0 
L 56 0 
L 46.6875 18.703125 
Q 43.0625 26.03125 39.671875 28.421875 
Q 36.28125 30.8125 30.421875 30.8125 
L 19.671875 30.8125 
L 19.671875 0 
L 9.8125 0 
L 9.8125 72.90625 
L 32.078125 72.90625 
Q 44.578125 72.90625 50.734375 67.671875 
Q 56.890625 62.453125 56.890625 51.90625 
Q 56.890625 45.015625 53.6875 40.46875 
Q 50.484375 35.9375 44.390625 34.1875 
z
M 19.671875 64.796875 
L 19.671875 38.921875 
L 32.078125 38.921875 
Q 39.203125 38.921875 42.84375 42.21875 
Q 46.484375 45.515625 46.484375 51.90625 
Q 46.484375 58.296875 42.84375 61.546875 
Q 39.203125 64.796875 32.078125 64.796875 
z
" id="DejaVuSans-52"/>
      <path d="M 56.203125 29.59375 
L 56.203125 25.203125 
L 14.890625 25.203125 
Q 15.484375 15.921875 20.484375 11.0625 
Q 25.484375 6.203125 34.421875 6.203125 
Q 39.59375 6.203125 44.453125 7.46875 
Q 49.3125 8.734375 54.109375 11.28125 
L 54.109375 2.78125 
Q 49.265625 0.734375 44.1875 -0.34375 
Q 39.109375 -1.421875 33.890625 -1.421875 
Q 20.796875 -1.421875 13.15625 6.1875 
Q 5.515625 13.8125 5.515625 26.8125 
Q 5.515625 40.234375 12.765625 48.109375 
Q 20.015625 56 32.328125 56 
Q 43.359375 56 49.78125 48.890625 
Q 56.203125 41.796875 56.203125 29.59375 
z
M 47.21875 32.234375 
Q 47.125 39.59375 43.09375 43.984375 
Q 39.0625 48.390625 32.421875 48.390625 
Q 24.90625 48.390625 20.390625 44.140625 
Q 15.875 39.890625 15.1875 32.171875 
z
" id="DejaVuSans-65"/>
      <path d="M 34.28125 27.484375 
Q 23.390625 27.484375 19.1875 25 
Q 14.984375 22.515625 14.984375 16.5 
Q 14.984375 11.71875 18.140625 8.90625 
Q 21.296875 6.109375 26.703125 6.109375 
Q 34.1875 6.109375 38.703125 11.40625 
Q 43.21875 16.703125 43.21875 25.484375 
L 43.21875 27.484375 
z
M 52.203125 31.203125 
L 52.203125 0 
L 43.21875 0 
L 43.21875 8.296875 
Q 40.140625 3.328125 35.546875 0.953125 
Q 30.953125 -1.421875 24.3125 -1.421875 
Q 15.921875 -1.421875 10.953125 3.296875 
Q 6 8.015625 6 15.921875 
Q 6 25.140625 12.171875 29.828125 
Q 18.359375 34.515625 30.609375 34.515625 
L 43.21875 34.515625 
L 43.21875 35.40625 
Q 43.21875 41.609375 39.140625 45 
Q 35.0625 48.390625 27.6875 48.390625 
Q 23 48.390625 18.546875 47.265625 
Q 14.109375 46.140625 10.015625 43.890625 
L 10.015625 52.203125 
Q 14.9375 54.109375 19.578125 55.046875 
Q 24.21875 56 28.609375 56 
Q 40.484375 56 46.34375 49.84375 
Q 52.203125 43.703125 52.203125 31.203125 
z
" id="DejaVuSans-61"/>
      <path d="M 9.421875 75.984375 
L 18.40625 75.984375 
L 18.40625 0 
L 9.421875 0 
z
" id="DejaVuSans-6c"/>
      <path id="DejaVuSans-20"/>
      <path d="M 18.109375 8.203125 
L 18.109375 -20.796875 
L 9.078125 -20.796875 
L 9.078125 54.6875 
L 18.109375 54.6875 
L 18.109375 46.390625 
Q 20.953125 51.265625 25.265625 53.625 
Q 29.59375 56 35.59375 56 
Q 45.5625 56 51.78125 48.09375 
Q 58.015625 40.1875 58.015625 27.296875 
Q 58.015625 14.40625 51.78125 6.484375 
Q 45.5625 -1.421875 35.59375 -1.421875 
Q 29.59375 -1.421875 25.265625 0.953125 
Q 20.953125 3.328125 18.109375 8.203125 
z
M 48.6875 27.296875 
Q 48.6875 37.203125 44.609375 42.84375 
Q 40.53125 48.484375 33.40625 48.484375 
Q 26.265625 48.484375 22.1875 42.84375 
Q 18.109375 37.203125 18.109375 27.296875 
Q 18.109375 17.390625 22.1875 11.75 
Q 26.265625 6.109375 33.40625 6.109375 
Q 40.53125 6.109375 44.609375 11.75 
Q 48.6875 17.390625 48.6875 27.296875 
z
" id="DejaVuSans-70"/>
      <path d="M 41.109375 46.296875 
Q 39.59375 47.171875 37.8125 47.578125 
Q 36.03125 48 33.890625 48 
Q 26.265625 48 22.1875 43.046875 
Q 18.109375 38.09375 18.109375 28.8125 
L 18.109375 0 
L 9.078125 0 
L 9.078125 54.6875 
L 18.109375 54.6875 
L 18.109375 46.1875 
Q 20.953125 51.171875 25.484375 53.578125 
Q 30.03125 56 36.53125 56 
Q 37.453125 56 38.578125 55.875 
Q 39.703125 55.765625 41.0625 55.515625 
z
" id="DejaVuSans-72"/>
      <path d="M 18.3125 70.21875 
L 18.3125 54.6875 
L 36.8125 54.6875 
L 36.8125 47.703125 
L 18.3125 47.703125 
L 18.3125 18.015625 
Q 18.3125 11.328125 20.140625 9.421875 
Q 21.96875 7.515625 27.59375 7.515625 
L 36.8125 7.515625 
L 36.8125 0 
L 27.59375 0 
Q 17.1875 0 13.234375 3.875 
Q 9.28125 7.765625 9.28125 18.015625 
L 9.28125 47.703125 
L 2.6875 47.703125 
L 2.6875 54.6875 
L 9.28125 54.6875 
L 9.28125 70.21875 
z
" id="DejaVuSans-74"/>
     </defs>
     <g transform="translate(486.903125 479.116094)scale(0.13 -0.13)">
      <use xlink:href="#DejaVuSans-52"/>
      <use x="69.419922" xlink:href="#DejaVuSans-65"/>
      <use x="130.943359" xlink:href="#DejaVuSans-61"/>
      <use x="192.222656" xlink:href="#DejaVuSans-6c"/>
      <use x="220.005859" xlink:href="#DejaVuSans-20"/>
      <use x="251.792969" xlink:href="#DejaVuSans-70"/>
      <use x="315.269531" xlink:href="#DejaVuSans-61"/>
      <use x="376.548828" xlink:href="#DejaVuSans-72"/>
      <use x="417.662109" xlink:href="#DejaVuSans-74"/>
     </g>
    </g>
   </g>
   <g id="matplotlib.axis_2">
    <g id="ytick_1">
     <g id="line2d_19">
      <path clip-path="url(#p2ec013457f)" d="M 126 448.56 
L 907.2 448.56 
" style="fill:none;stroke:#b0b0b0;stroke-linecap:square;stroke-width:0.8;"/>
     </g>
     <g id="line2d_20">
      <defs>
       <path d="M 0 0 
L -3.5 0 
" id="m69f1f42a58" style="stroke:#000000;stroke-width:0.8;"/>
      </defs>
      <g>
       <use style="stroke:#000000;stroke-width:0.8;" x="126" xlink:href="#m69f1f42a58" y="448.56"/>
      </g>
     </g>
     <g id="text_11">
      <!-- −20 -->
      <g transform="translate(97.895313 452.359219)scale(0.1 -0.1)">
       <use xlink:href="#DejaVuSans-2212"/>
       <use x="83.789062" xlink:href="#DejaVuSans-32"/>
       <use x="147.412109" xlink:href="#DejaVuSans-30"/>
      </g>
     </g>
    </g>
    <g id="ytick_2">
     <g id="line2d_21">
      <path clip-path="url(#p2ec013457f)" d="M 126 400.05 
L 907.2 400.05 
" style="fill:none;stroke:#b0b0b0;stroke-linecap:square;stroke-width:0.8;"/>
     </g>
     <g id="line2d_22">
      <g>
       <use style="stroke:#000000;stroke-width:0.8;" x="126" xlink:href="#m69f1f42a58" y="400.05"/>
      </g>
     </g>
     <g id="text_12">
      <!-- −15 -->
      <defs>
       <path d="M 10.796875 72.90625 
L 49.515625 72.90625 
L 49.515625 64.59375 
L 19.828125 64.59375 
L 19.828125 46.734375 
Q 21.96875 47.46875 24.109375 47.828125 
Q 26.265625 48.1875 28.421875 48.1875 
Q 40.625 48.1875 47.75 41.5 
Q 54.890625 34.8125 54.890625 23.390625 
Q 54.890625 11.625 47.5625 5.09375 
Q 40.234375 -1.421875 26.90625 -1.421875 
Q 22.3125 -1.421875 17.546875 -0.640625 
Q 12.796875 0.140625 7.71875 1.703125 
L 7.71875 11.625 
Q 12.109375 9.234375 16.796875 8.0625 
Q 21.484375 6.890625 26.703125 6.890625 
Q 35.15625 6.890625 40.078125 11.328125 
Q 45.015625 15.765625 45.015625 23.390625 
Q 45.015625 31 40.078125 35.4375 
Q 35.15625 39.890625 26.703125 39.890625 
Q 22.75 39.890625 18.8125 39.015625 
Q 14.890625 38.140625 10.796875 36.28125 
z
" id="DejaVuSans-35"/>
      </defs>
      <g transform="translate(97.895313 403.849219)scale(0.1 -0.1)">
       <use xlink:href="#DejaVuSans-2212"/>
       <use x="83.789062" xlink:href="#DejaVuSans-31"/>
       <use x="147.412109" xlink:href="#DejaVuSans-35"/>
      </g>
     </g>
    </g>
    <g id="ytick_3">
     <g id="line2d_23">
      <path clip-path="url(#p2ec013457f)" d="M 126 351.54 
L 907.2 351.54 
" style="fill:none;stroke:#b0b0b0;stroke-linecap:square;stroke-width:0.8;"/>
     </g>
     <g id="line2d_24">
      <g>
       <use style="stroke:#000000;stroke-width:0.8;" x="126" xlink:href="#m69f1f42a58" y="351.54"/>
      </g>
     </g>
     <g id="text_13">
      <!-- −10 -->
      <g transform="translate(97.895313 355.339219)scale(0.1 -0.1)">
       <use xlink:href="#DejaVuSans-2212"/>
       <use x="83.789062" xlink:href="#DejaVuSans-31"/>
       <use x="147.412109" xlink:href="#DejaVuSans-30"/>
      </g>
     </g>
    </g>
    <g id="ytick_4">
     <g id="line2d_25">
      <path clip-path="url(#p2ec013457f)" d="M 126 303.03 
L 907.2 303.03 
" style="fill:none;stroke:#b0b0b0;stroke-linecap:square;stroke-width:0.8;"/>
     </g>
     <g id="line2d_26">
      <g>
       <use style="stroke:#000000;stroke-width:0.8;" x="126" xlink:href="#m69f1f42a58" y="303.03"/>
      </g>
     </g>
     <g id="text_14">
      <!-- −5 -->
      <g transform="translate(104.257812 306.829219)scale(0.1 -0.1)">
       <use xlink:href="#DejaVuSans-2212"/>
       <use x="83.789062" xlink:href="#DejaVuSans-35"/>
      </g>
     </g>
    </g>
    <g id="ytick_5">
     <g id="line2d_27">
      <path clip-path="url(#p2ec013457f)" d="M 126 254.52 
L 907.2 254.52 
" style="fill:none;stroke:#b0b0b0;stroke-linecap:square;stroke-width:0.8;"/>
     </g>
     <g id="line2d_28">
      <g>
       <use style="stroke:#000000;stroke-width:0.8;" x="126" xlink:href="#m69f1f42a58" y="254.52"/>
      </g>
     </g>
     <g id="text_15">
      <!-- 0 -->
      <g transform="translate(112.6375 258.319219)scale(0.1 -0.1)">
       <use xlink:href="#DejaVuSans-30"/>
      </g>
     </g>
    </g>
    <g id="ytick_6">
     <g id="line2d_29">
      <path clip-path="url(#p2ec013457f)" d="M 126 206.01 
L 907.2 206.01 
" style="fill:none;stroke:#b0b0b0;stroke-linecap:square;stroke-width:0.8;"/>
     </g>
     <g id="line2d_30">
      <g>
       <use style="stroke:#000000;stroke-width:0.8;" x="126" xlink:href="#m69f1f42a58" y="206.01"/>
      </g>
     </g>
     <g id="text_16">
      <!-- 5 -->
      <g transform="translate(112.6375 209.809219)scale(0.1 -0.1)">
       <use xlink:href="#DejaVuSans-35"/>
      </g>
     </g>
    </g>
    <g id="ytick_7">
     <g id="line2d_31">
      <path clip-path="url(#p2ec013457f)" d="M 126 157.5 
L 907.2 157.5 
" style="fill:none;stroke:#b0b0b0;stroke-linecap:square;stroke-width:0.8;"/>
     </g>
     <g id="line2d_32">
      <g>
       <use style="stroke:#000000;stroke-width:0.8;" x="126" xlink:href="#m69f1f42a58" y="157.5"/>
      </g>
     </g>
     <g id="text_17">
      <!-- 10 -->
      <g transform="translate(106.275 161.299219)scale(0.1 -0.1)">
       <use xlink:href="#DejaVuSans-31"/>
       <use x="63.623047" xlink:href="#DejaVuSans-30"/>
      </g>
     </g>
    </g>
    <g id="ytick_8">
     <g id="line2d_33">
      <path clip-path="url(#p2ec013457f)" d="M 126 108.99 
L 907.2 108.99 
" style="fill:none;stroke:#b0b0b0;stroke-linecap:square;stroke-width:0.8;"/>
     </g>
     <g id="line2d_34">
      <g>
       <use style="stroke:#000000;stroke-width:0.8;" x="126" xlink:href="#m69f1f42a58" y="108.99"/>
      </g>
     </g>
     <g id="text_18">
      <!-- 15 -->
      <g transform="translate(106.275 112.789219)scale(0.1 -0.1)">
       <use xlink:href="#DejaVuSans-31"/>
       <use x="63.623047" xlink:href="#DejaVuSans-35"/>
      </g>
     </g>
    </g>
    <g id="ytick_9">
     <g id="line2d_35">
      <path clip-path="url(#p2ec013457f)" d="M 126 60.48 
L 907.2 60.48 
" style="fill:none;stroke:#b0b0b0;stroke-linecap:square;stroke-width:0.8;"/>
     </g>
     <g id="line2d_36">
      <g>
       <use style="stroke:#000000;stroke-width:0.8;" x="126" xlink:href="#m69f1f42a58" y="60.48"/>
      </g>
     </g>
     <g id="text_19">
      <!-- 20 -->
      <g transform="translate(106.275 64.279219)scale(0.1 -0.1)">
       <use xlink:href="#DejaVuSans-32"/>
       <use x="63.623047" xlink:href="#DejaVuSans-30"/>
      </g>
     </g>
    </g>
    <g id="text_20">
     <!-- Imaginary part -->
     <defs>
      <path d="M 9.8125 72.90625 
L 19.671875 72.90625 
L 19.671875 0 
L 9.8125 0 
z
" id="DejaVuSans-49"/>
      <path d="M 52 44.1875 
Q 55.375 50.25 60.0625 53.125 
Q 64.75 56 71.09375 56 
Q 79.640625 56 84.28125 50.015625 
Q 88.921875 44.046875 88.921875 33.015625 
L 88.921875 0 
L 79.890625 0 
L 79.890625 32.71875 
Q 79.890625 40.578125 77.09375 44.375 
Q 74.3125 48.1875 68.609375 48.1875 
Q 61.625 48.1875 57.5625 43.546875 
Q 53.515625 38.921875 53.515625 30.90625 
L 53.515625 0 
L 44.484375 0 
L 44.484375 32.71875 
Q 44.484375 40.625 41.703125 44.40625 
Q 38.921875 48.1875 33.109375 48.1875 
Q 26.21875 48.1875 22.15625 43.53125 
Q 18.109375 38.875 18.109375 30.90625 
L 18.109375 0 
L 9.078125 0 
L 9.078125 54.6875 
L 18.109375 54.6875 
L 18.109375 46.1875 
Q 21.1875 51.21875 25.484375 53.609375 
Q 29.78125 56 35.6875 56 
Q 41.65625 56 45.828125 52.96875 
Q 50 49.953125 52 44.1875 
z
" id="DejaVuSans-6d"/>
      <path d="M 45.40625 27.984375 
Q 45.40625 37.75 41.375 43.109375 
Q 37.359375 48.484375 30.078125 48.484375 
Q 22.859375 48.484375 18.828125 43.109375 
Q 14.796875 37.75 14.796875 27.984375 
Q 14.796875 18.265625 18.828125 12.890625 
Q 22.859375 7.515625 30.078125 7.515625 
Q 37.359375 7.515625 41.375 12.890625 
Q 45.40625 18.265625 45.40625 27.984375 
z
M 54.390625 6.78125 
Q 54.390625 -7.171875 48.1875 -13.984375 
Q 42 -20.796875 29.203125 -20.796875 
Q 24.46875 -20.796875 20.265625 -20.09375 
Q 16.0625 -19.390625 12.109375 -17.921875 
L 12.109375 -9.1875 
Q 16.0625 -11.328125 19.921875 -12.34375 
Q 23.78125 -13.375 27.78125 -13.375 
Q 36.625 -13.375 41.015625 -8.765625 
Q 45.40625 -4.15625 45.40625 5.171875 
L 45.40625 9.625 
Q 42.625 4.78125 38.28125 2.390625 
Q 33.9375 0 27.875 0 
Q 17.828125 0 11.671875 7.65625 
Q 5.515625 15.328125 5.515625 27.984375 
Q 5.515625 40.671875 11.671875 48.328125 
Q 17.828125 56 27.875 56 
Q 33.9375 56 38.28125 53.609375 
Q 42.625 51.21875 45.40625 46.390625 
L 45.40625 54.6875 
L 54.390625 54.6875 
z
" id="DejaVuSans-67"/>
      <path d="M 9.421875 54.6875 
L 18.40625 54.6875 
L 18.40625 0 
L 9.421875 0 
z
M 9.421875 75.984375 
L 18.40625 75.984375 
L 18.40625 64.59375 
L 9.421875 64.59375 
z
" id="DejaVuSans-69"/>
      <path d="M 54.890625 33.015625 
L 54.890625 0 
L 45.90625 0 
L 45.90625 32.71875 
Q 45.90625 40.484375 42.875 44.328125 
Q 39.84375 48.1875 33.796875 48.1875 
Q 26.515625 48.1875 22.3125 43.546875 
Q 18.109375 38.921875 18.109375 30.90625 
L 18.109375 0 
L 9.078125 0 
L 9.078125 54.6875 
L 18.109375 54.6875 
L 18.109375 46.1875 
Q 21.34375 51.125 25.703125 53.5625 
Q 30.078125 56 35.796875 56 
Q 45.21875 56 50.046875 50.171875 
Q 54.890625 44.34375 54.890625 33.015625 
z
" id="DejaVuSans-6e"/>
      <path d="M 32.171875 -5.078125 
Q 28.375 -14.84375 24.75 -17.8125 
Q 21.140625 -20.796875 15.09375 -20.796875 
L 7.90625 -20.796875 
L 7.90625 -13.28125 
L 13.1875 -13.28125 
Q 16.890625 -13.28125 18.9375 -11.515625 
Q 21 -9.765625 23.484375 -3.21875 
L 25.09375 0.875 
L 2.984375 54.6875 
L 12.5 54.6875 
L 29.59375 11.921875 
L 46.6875 54.6875 
L 56.203125 54.6875 
z
" id="DejaVuSans-79"/>
     </defs>
     <g transform="translate(91.191719 302.702266)rotate(-90)scale(0.13 -0.13)">
      <use xlink:href="#DejaVuSans-49"/>
      <use x="29.492188" xlink:href="#DejaVuSans-6d"/>
      <use x="126.904297" xlink:href="#DejaVuSans-61"/>
      <use x="188.183594" xlink:href="#DejaVuSans-67"/>
      <use x="251.660156" xlink:href="#DejaVuSans-69"/>
      <use x="279.443359" xlink:href="#DejaVuSans-6e"/>
      <use x="342.822266" xlink:href="#DejaVuSans-61"/>
      <use x="404.101562" xlink:href="#DejaVuSans-72"/>
      <use x="445.214844" xlink:href="#DejaVuSans-79"/>
      <use x="504.394531" xlink:href="#DejaVuSans-20"/>
      <use x="536.181641" xlink:href="#DejaVuSans-70"/>
      <use x="599.658203" xlink:href="#DejaVuSans-61"/>
      <use x="660.9375" xlink:href="#DejaVuSans-72"/>
      <use x="702.050781" xlink:href="#DejaVuSans-74"/>
     </g>
    </g>
   </g>
   <g id="line2d_37">
    <defs>
     <path d="M 0 4 
C 1.060812 4 2.078319 3.578535 2.828427 2.828427 
C 3.578535 2.078319 4 1.060812 4 0 
C 4 -1.060812 3.578535 -2.078319 2.828427 -2.828427 
C 2.078319 -3.578535 1.060812 -4 0 -4 
C -1.060812 -4 -2.078319 -3.578535 -2.828427 -2.828427 
C -3.578535 -2.078319 -4 -1.060812 -4 0 
C -4 1.060812 -3.578535 2.078319 -2.828427 2.828427 
C -2.078319 3.578535 -1.060812 4 0 4 
z
" id="mcacb907b6a" style="stroke:#c1161b;"/>
    </defs>
    <g clip-path="url(#p2ec013457f)">
     <use style="fill:#c1161b;stroke:#c1161b;" x="320.014055" xlink:href="#mcacb907b6a" y="261.639101"/>
     <use style="fill:#c1161b;stroke:#c1161b;" x="522.513628" xlink:href="#mcacb907b6a" y="429.868085"/>
     <use style="fill:#c1161b;stroke:#c1161b;" x="374.89218" xlink:href="#mcacb907b6a" y="349.829301"/>
     <use style="fill:#c1161b;stroke:#c1161b;" x="358.397012" xlink:href="#mcacb907b6a" y="382.833393"/>
     <use style="fill:#c1161b;stroke:#c1161b;" x="330.116369" xlink:href="#mcacb907b6a" y="357.061032"/>
     <use style="fill:#c1161b;stroke:#c1161b;" x="332.610527" xlink:href="#mcacb907b6a" y="177.357051"/>
     <use style="fill:#c1161b;stroke:#c1161b;" x="397.557109" xlink:href="#mcacb907b6a" y="129.720038"/>
     <use style="fill:#c1161b;stroke:#c1161b;" x="689.039181" xlink:href="#mcacb907b6a" y="168.367355"/>
     <use style="fill:#c1161b;stroke:#c1161b;" x="539.969459" xlink:href="#mcacb907b6a" y="470.024268"/>
     <use style="fill:#c1161b;stroke:#c1161b;" x="339.848508" xlink:href="#mcacb907b6a" y="348.021892"/>
     <use style="fill:#c1161b;stroke:#c1161b;" x="625.444469" xlink:href="#mcacb907b6a" y="77.212757"/>
     <use style="fill:#c1161b;stroke:#c1161b;" x="647.048766" xlink:href="#mcacb907b6a" y="93.65421"/>
     <use style="fill:#c1161b;stroke:#c1161b;" x="387.066513" xlink:href="#mcacb907b6a" y="385.806851"/>
     <use style="fill:#c1161b;stroke:#c1161b;" x="433.033441" xlink:href="#mcacb907b6a" y="87.114896"/>
     <use style="fill:#c1161b;stroke:#c1161b;" x="703.574226" xlink:href="#mcacb907b6a" y="319.346003"/>
     <use style="fill:#c1161b;stroke:#c1161b;" x="403.123712" xlink:href="#mcacb907b6a" y="435.673788"/>
     <use style="fill:#c1161b;stroke:#c1161b;" x="544.282801" xlink:href="#mcacb907b6a" y="471.363476"/>
     <use style="fill:#c1161b;stroke:#c1161b;" x="321.808575" xlink:href="#mcacb907b6a" y="277.939735"/>
     <use style="fill:#c1161b;stroke:#c1161b;" x="406.179182" xlink:href="#mcacb907b6a" y="449.87382"/>
     <use style="fill:#c1161b;stroke:#c1161b;" x="723.01318" xlink:href="#mcacb907b6a" y="246.277864"/>
     <use style="fill:#c1161b;stroke:#c1161b;" x="463.322399" xlink:href="#mcacb907b6a" y="89.089568"/>
     <use style="fill:#c1161b;stroke:#c1161b;" x="346.727215" xlink:href="#mcacb907b6a" y="231.086964"/>
     <use style="fill:#c1161b;stroke:#c1161b;" x="378.386526" xlink:href="#mcacb907b6a" y="355.771589"/>
     <use style="fill:#c1161b;stroke:#c1161b;" x="533.998189" xlink:href="#mcacb907b6a" y="432.148547"/>
     <use style="fill:#c1161b;stroke:#c1161b;" x="617.188836" xlink:href="#mcacb907b6a" y="446.263729"/>
     <use style="fill:#c1161b;stroke:#c1161b;" x="326.548228" xlink:href="#mcacb907b6a" y="293.530988"/>
     <use style="fill:#c1161b;stroke:#c1161b;" x="395.769375" xlink:href="#mcacb907b6a" y="94.827059"/>
     <use style="fill:#c1161b;stroke:#c1161b;" x="425.436082" xlink:href="#mcacb907b6a" y="97.193902"/>
     <use style="fill:#c1161b;stroke:#c1161b;" x="538.107124" xlink:href="#mcacb907b6a" y="444.827873"/>
     <use style="fill:#c1161b;stroke:#c1161b;" x="551.143208" xlink:href="#mcacb907b6a" y="87.505879"/>
     <use style="fill:#c1161b;stroke:#c1161b;" x="711.893386" xlink:href="#mcacb907b6a" y="290.73163"/>
     <use style="fill:#c1161b;stroke:#c1161b;" x="618.981232" xlink:href="#mcacb907b6a" y="407.891831"/>
     <use style="fill:#c1161b;stroke:#c1161b;" x="405.822787" xlink:href="#mcacb907b6a" y="100.640666"/>
     <use style="fill:#c1161b;stroke:#c1161b;" x="524.144596" xlink:href="#mcacb907b6a" y="439.735394"/>
     <use style="fill:#c1161b;stroke:#c1161b;" x="414.828586" xlink:href="#mcacb907b6a" y="429.064949"/>
     <use style="fill:#c1161b;stroke:#c1161b;" x="643.206934" xlink:href="#mcacb907b6a" y="96.129462"/>
     <use style="fill:#c1161b;stroke:#c1161b;" x="609.799488" xlink:href="#mcacb907b6a" y="88.346756"/>
     <use style="fill:#c1161b;stroke:#c1161b;" x="673.796784" xlink:href="#mcacb907b6a" y="199.033089"/>
     <use style="fill:#c1161b;stroke:#c1161b;" x="363.160411" xlink:href="#mcacb907b6a" y="368.816282"/>
     <use style="fill:#c1161b;stroke:#c1161b;" x="348.721763" xlink:href="#mcacb907b6a" y="336.953337"/>
     <use style="fill:#c1161b;stroke:#c1161b;" x="704.63538" xlink:href="#mcacb907b6a" y="212.20089"/>
     <use style="fill:#c1161b;stroke:#c1161b;" x="757.621371" xlink:href="#mcacb907b6a" y="241.026995"/>
     <use style="fill:#c1161b;stroke:#c1161b;" x="698.080706" xlink:href="#mcacb907b6a" y="365.090947"/>
     <use style="fill:#c1161b;stroke:#c1161b;" x="403.891494" xlink:href="#mcacb907b6a" y="407.180387"/>
     <use style="fill:#c1161b;stroke:#c1161b;" x="376.3809" xlink:href="#mcacb907b6a" y="130.687067"/>
     <use style="fill:#c1161b;stroke:#c1161b;" x="336.851726" xlink:href="#mcacb907b6a" y="275.776539"/>
     <use style="fill:#c1161b;stroke:#c1161b;" x="332.760128" xlink:href="#mcacb907b6a" y="322.731289"/>
     <use style="fill:#c1161b;stroke:#c1161b;" x="474.414441" xlink:href="#mcacb907b6a" y="67.346995"/>
     <use style="fill:#c1161b;stroke:#c1161b;" x="335.461806" xlink:href="#mcacb907b6a" y="285.667433"/>
     <use style="fill:#c1161b;stroke:#c1161b;" x="690.636201" xlink:href="#mcacb907b6a" y="178.32065"/>
     <use style="fill:#c1161b;stroke:#c1161b;" x="681.908269" xlink:href="#mcacb907b6a" y="217.529988"/>
     <use style="fill:#c1161b;stroke:#c1161b;" x="361.461014" xlink:href="#mcacb907b6a" y="365.092632"/>
     <use style="fill:#c1161b;stroke:#c1161b;" x="707.292539" xlink:href="#mcacb907b6a" y="227.082234"/>
     <use style="fill:#c1161b;stroke:#c1161b;" x="366.767027" xlink:href="#mcacb907b6a" y="365.80698"/>
     <use style="fill:#c1161b;stroke:#c1161b;" x="381.215992" xlink:href="#mcacb907b6a" y="107.109249"/>
     <use style="fill:#c1161b;stroke:#c1161b;" x="671.738358" xlink:href="#mcacb907b6a" y="129.180708"/>
     <use style="fill:#c1161b;stroke:#c1161b;" x="433.524586" xlink:href="#mcacb907b6a" y="415.654178"/>
     <use style="fill:#c1161b;stroke:#c1161b;" x="562.49215" xlink:href="#mcacb907b6a" y="461.631179"/>
     <use style="fill:#c1161b;stroke:#c1161b;" x="643.093682" xlink:href="#mcacb907b6a" y="416.830931"/>
     <use style="fill:#c1161b;stroke:#c1161b;" x="373.789077" xlink:href="#mcacb907b6a" y="400.018884"/>
     <use style="fill:#c1161b;stroke:#c1161b;" x="526.589365" xlink:href="#mcacb907b6a" y="449.982969"/>
     <use style="fill:#c1161b;stroke:#c1161b;" x="345.674236" xlink:href="#mcacb907b6a" y="232.42971"/>
     <use style="fill:#c1161b;stroke:#c1161b;" x="330.503729" xlink:href="#mcacb907b6a" y="320.82194"/>
     <use style="fill:#c1161b;stroke:#c1161b;" x="653.94171" xlink:href="#mcacb907b6a" y="109.16237"/>
     <use style="fill:#c1161b;stroke:#c1161b;" x="381.438848" xlink:href="#mcacb907b6a" y="425.446088"/>
     <use style="fill:#c1161b;stroke:#c1161b;" x="473.921601" xlink:href="#mcacb907b6a" y="58.963149"/>
     <use style="fill:#c1161b;stroke:#c1161b;" x="343.590312" xlink:href="#mcacb907b6a" y="323.065386"/>
     <use style="fill:#c1161b;stroke:#c1161b;" x="318.84851" xlink:href="#mcacb907b6a" y="316.193029"/>
     <use style="fill:#c1161b;stroke:#c1161b;" x="404.89368" xlink:href="#mcacb907b6a" y="427.9204"/>
     <use style="fill:#c1161b;stroke:#c1161b;" x="578.205389" xlink:href="#mcacb907b6a" y="474.340016"/>
     <use style="fill:#c1161b;stroke:#c1161b;" x="423.574929" xlink:href="#mcacb907b6a" y="106.762997"/>
     <use style="fill:#c1161b;stroke:#c1161b;" x="677.290255" xlink:href="#mcacb907b6a" y="153.466009"/>
     <use style="fill:#c1161b;stroke:#c1161b;" x="469.069594" xlink:href="#mcacb907b6a" y="432.598003"/>
     <use style="fill:#c1161b;stroke:#c1161b;" x="496.365959" xlink:href="#mcacb907b6a" y="82.436803"/>
     <use style="fill:#c1161b;stroke:#c1161b;" x="657.001596" xlink:href="#mcacb907b6a" y="398.35227"/>
    </g>
   </g>
   <g id="patch_4">
    <path d="M 126 448.56 
L 126 60.48 
" style="fill:none;stroke:#000000;stroke-linecap:square;stroke-linejoin:miter;stroke-width:0.8;"/>
   </g>
   <g id="patch_5">
    <path d="M 907.2 448.56 
L 907.2 60.48 
" style="fill:none;stroke:#000000;stroke-linecap:square;stroke-linejoin:miter;stroke-width:0.8;"/>
   </g>
   <g id="patch_6">
    <path d="M 126 448.56 
L 907.2 448.56 
" style="fill:none;stroke:#000000;stroke-linecap:square;stroke-linejoin:miter;stroke-width:0.8;"/>
   </g>
   <g id="patch_7">
    <path d="M 126 60.48 
L 907.2 60.48 
" style="fill:none;stroke:#000000;stroke-linecap:square;stroke-linejoin:miter;stroke-width:0.8;"/>
   </g>
  </g>
 </g>
 <defs>
  <clipPath id="p2ec013457f">
   <rect height="388.08" width="781.2" x="126" y="60.48"/>
  </clipPath>
 </defs>
</svg>
